<?xml version="1.0" encoding="utf-8"?>
<!-- Generator: Adobe Illustrator 16.0.0, SVG Export Plug-In . SVG Version: 6.00 Build 0)  -->
<!DOCTYPE svg PUBLIC "-//W3C//DTD SVG 1.1//EN" "http://www.w3.org/Graphics/SVG/1.1/DTD/svg11.dtd">
<svg version="1.1" id="Layer_1" xmlns="http://www.w3.org/2000/svg" xmlns:xlink="http://www.w3.org/1999/xlink" x="0px" y="0px"
	 width="100%" height="100%" viewBox="16.729 179.366 762.198 243.607"
	 enable-background="new 16.729 179.366 762.198 243.607" xml:space="preserve">
	   <style type="text/css">
    <![CDATA[ 
    .logo {
    	z-index : 2;
        fill: none;
        stroke: #123cbf;
        stroke-dasharray : 1000;
        stroke-dashoffset : 1000;
    }
	.iamc
	{
		z-index : 3;
	    fill: #ffffff;
	    stroke: #ffffff;
	    stroke-dasharray : 500 2000;
	    stroke-dashoffset : 0;
	}
	  .welcome {
    	z-index : 5;
    	fill: none;
        stroke: #00BBAA ;
        stroke-width: 3;
        stroke-miterlimit: 10;
        stroke-dasharray : 2000;
        stroke-dashoffset : 0;
    }
    section { margin:0; }
    #outline path
    {
    stroke : #010101;
    }
    #main path
    {
    stroke : #ffffff;
    }
.text-copy {
  fill: none;
  stroke: white;
  stroke-dasharray: 7% 28%;
  stroke-width: 3px;
  -webkit-animation: stroke-offset 7s 1.5s linear;
   animation: stroke-offset 7s 1.5s linear;
}
.text-copy:nth-child(1) {
  stroke: #ffffff;
  stroke-dashoffset: 7%;
}
.text-copy:nth-child(2) {
  stroke: #FF2D6A;
  stroke-dashoffset: 14%;
}
.text-copy:nth-child(3) {
  stroke: #FFED48;
  stroke-dashoffset: 21%;
}
.text-copy:nth-child(4) {
  stroke: #388E3C;
  stroke-dashoffset: 28%;
}
.text-copy:nth-child(5) {
  stroke: #00B8FB;
  stroke-dashoffset: 35%;
}

@-webkit-keyframes stroke-offset {
  50% {
    stroke-dashoffset: 35%;
    stroke-dasharray: 0 87.5%;
  }
}

@keyframes stroke-offset {
  25% {
    stroke-dashoffset: 35%;
    stroke-dasharray: 0 87.5%;
  }
}
  
    ]]>
    </style> 
<g id="wlcm">
	<path class="welcome" stroke="#000000" stroke-width="2" stroke-miterlimit="10" d="M189.921,244.157c-3.241,4.207-6.348,8.508-9.318,12.906
		c-2.971,4.398-5.729,8.759-8.276,13.079c-2.546,4.323-4.708,8.374-6.481,12.154c0.848,0,1.696-0.038,2.546-0.116
		c0.848-0.076,1.581-0.038,2.199,0.116c0.539,0.155,0.886,0.387,1.042,0.694c0.154,0.309,0.174,0.599,0.058,0.868
		c-0.116,0.271-0.348,0.521-0.695,0.752c-0.347,0.231-0.792,0.271-1.331,0.116c-0.694-0.076-1.447-0.076-2.257,0
		c-0.811,0.078-1.756,0.116-2.836,0.116c-0.694,1.389-1.583,3.281-2.662,5.671c-1.082,2.393-2.124,5.035-3.125,7.929
		c-1.003,2.894-1.852,5.885-2.546,8.971c-0.694,3.087-1.003,5.979-0.926,8.681c0,1.082,0.423,1.794,1.273,2.143
		c0.849,0.347,1.581,0.329,2.199-0.059c0.539-0.308,0.886-0.308,1.042,0c0.154,0.31,0.076,0.733-0.231,1.272
		c-0.31,0.388-0.85,0.849-1.621,1.39c-0.463,0.153-0.966,0.115-1.505-0.116c-0.541-0.23-1.042-0.577-1.504-1.042
		c-0.463-0.463-0.888-1.002-1.273-1.619c-0.387-0.616-0.619-1.157-0.694-1.62c-0.387-2.084-0.425-4.494-0.116-7.234
		c0.308-2.738,0.828-5.556,1.563-8.45c0.732-2.894,1.601-5.748,2.604-8.565c1.002-2.816,2.005-5.266,3.009-7.35
		c-1.698,0-3.936,0.04-6.713,0.116c-2.778,0.078-5.691,0.173-8.739,0.289c-3.049,0.116-6.059,0.271-9.028,0.463
		c-2.972,0.193-5.498,0.445-7.582,0.752c-4.091,5.556-8.432,10.978-13.021,16.263c-4.592,5.287-9.396,10.186-14.411,14.7
		c-5.017,4.516-10.226,8.508-15.626,11.98c-5.402,3.472-10.92,6.134-16.552,7.985c-3.782,1.157-7.042,1.696-9.781,1.62
		c-2.74-0.077-4.977-0.599-6.713-1.563c-1.736-0.966-2.991-2.219-3.762-3.762c-0.772-1.546-1.042-3.165-0.81-4.861
		c0.231-1.467,0.694-2.972,1.389-4.516c0.695-1.544,1.523-3.009,2.489-4.397c0.964-1.389,1.968-2.68,3.009-3.877
		c1.042-1.195,2.026-2.218,2.952-3.067c0.617-0.617,1.118-0.79,1.505-0.521c0.385,0.271,0.27,0.714-0.347,1.331
		c-0.695,0.85-1.447,1.834-2.257,2.951c-0.81,1.118-1.583,2.354-2.315,3.703c-0.734,1.35-1.371,2.759-1.91,4.226
		c-0.541,1.465-0.888,2.932-1.042,4.397c-0.231,2.314,0.018,4.069,0.752,5.268c0.732,1.195,1.89,1.968,3.473,2.313
		c1.581,0.349,3.472,0.328,5.671-0.058c2.199-0.387,4.61-1.004,7.234-1.852c4.784-1.698,9.723-4.283,14.815-7.756
		c5.093-3.473,10.012-7.407,14.758-11.807s9.22-9.028,13.427-13.89c4.205-4.861,7.851-9.567,10.938-14.121
		c-0.618,0.078-1.447,0.213-2.488,0.405c-1.042,0.194-1.988,0.29-2.836,0.29c-0.694,0-1.313-0.25-1.852-0.752
		c-0.541-0.501-0.926-1.06-1.157-1.678c-0.231-0.617-0.271-1.195-0.116-1.736c0.153-0.539,0.617-0.848,1.389-0.926
		c1.312-0.231,2.854-0.328,4.63-0.29c1.774,0.04,3.588-0.018,5.44-0.173c1.08-1.312,2.199-2.97,3.356-4.978
		c1.158-2.005,2.257-4.089,3.299-6.25c1.042-2.16,1.968-4.301,2.778-6.424c0.811-2.121,1.407-3.953,1.794-5.498
		c0.77-4.011,0.868-7.483,0.289-10.417c-0.579-2.932-1.834-5.267-3.762-7.003c-1.93-1.736-4.514-2.816-7.755-3.241
		c-3.241-0.423-7.101-0.096-11.575,0.984c-7.408,1.852-14.662,5.229-21.761,10.128c-7.101,4.901-13.582,10.746-19.445,17.536
		c0,1.004-0.078,1.698-0.232,2.083c-0.155,0.387-0.387,0.81-0.694,1.273c-0.619,0.85-1.429,1.776-2.431,2.778
		c-1.004,1.003-2.007,1.814-3.009,2.431c-0.463,0.309-0.908,0.289-1.331-0.058c-0.425-0.347-0.752-0.828-0.984-1.447
		c-0.231-0.617-0.367-1.292-0.405-2.025c-0.04-0.732,0.134-1.331,0.521-1.794c2.778-4.243,6.153-8.256,10.128-12.038
		c3.973-3.78,8.178-7.176,12.616-10.186c4.437-3.01,8.893-5.536,13.369-7.582c4.474-2.044,8.641-3.491,12.5-4.341
		c5.015-1.002,9.414-1.175,13.195-0.521c3.78,0.656,6.867,2.025,9.26,4.109c2.391,2.083,4.051,4.786,4.977,8.103
		c0.926,3.318,1.08,7.138,0.463,11.459c-0.231,1.776-0.694,3.724-1.389,5.845c-0.695,2.123-1.467,4.225-2.315,6.308
		c-0.85,2.083-1.776,4.051-2.778,5.903c-1.003,1.852-1.967,3.473-2.894,4.862c1.696-0.076,3.877-0.096,6.54-0.058
		c2.662,0.04,5.458,0.078,8.392,0.116c2.932,0.04,5.787,0.058,8.565,0.058c2.778,0,5.093-0.038,6.945-0.116
		c1.389-3.01,3.105-6.289,5.151-9.839c2.044-3.548,4.167-7.061,6.366-10.533c2.199-3.473,4.34-6.751,6.424-9.839
		c2.083-3.085,3.896-5.632,5.44-7.639c0.385-0.463,0.463-0.828,0.231-1.1c-0.231-0.27-0.657-0.29-1.273-0.058
		c-0.387,0.078-0.676-0.019-0.868-0.29c-0.193-0.27-0.135-0.559,0.174-0.868c0.926-1.08,1.986-2.257,3.183-3.53
		c1.195-1.273,2.411-2.526,3.646-3.762c1.233-1.233,2.411-2.391,3.53-3.473c1.118-1.08,2.063-2.043,2.836-2.894
		c0.385-0.385,0.81-0.481,1.273-0.29c0.463,0.194,0.886,0.521,1.273,0.984c0.385,0.463,0.674,1.024,0.868,1.679
		c0.191,0.656,0.25,1.215,0.173,1.678C196.363,236.075,193.162,239.952,189.921,244.157z"/>
	<path class="welcome" stroke="#000000" stroke-width="2" stroke-miterlimit="10" d="M214.17,287.446c-1.736,1.197-3.686,1.95-5.845,2.257
		c-1.313,0.231-3.261,0.387-5.845,0.463c-2.586,0.078-5.422,0.156-8.507,0.231c-3.087,0.078-6.174,0.116-9.26,0.116
		c-3.087,0-5.788,0-8.103,0c-0.85,1.158-1.756,2.451-2.72,3.877c-0.966,1.429-1.872,2.952-2.72,4.572
		c-0.85,1.621-1.583,3.299-2.199,5.035c-0.619,1.736-0.966,3.53-1.042,5.383c-0.078,1.698,0.096,3.087,0.521,4.167
		c0.423,1.081,1.002,1.909,1.736,2.488c0.732,0.579,1.581,0.966,2.546,1.157c0.964,0.192,1.948,0.252,2.952,0.174
		c2.546-0.386,5.267-1.118,8.16-2.199c2.894-1.08,5.382-2.199,7.466-3.356c0.617-0.386,1.08-0.442,1.389-0.174
		c0.308,0.271,0.154,0.6-0.463,0.983c-0.85,0.619-1.852,1.294-3.009,2.026c-1.158,0.732-2.431,1.445-3.82,2.141
		c-1.389,0.694-2.835,1.331-4.34,1.91s-2.952,0.982-4.34,1.215c-1.158,0.231-2.431,0.098-3.82-0.404
		c-1.389-0.501-2.662-1.254-3.82-2.258c-1.157-1.002-2.123-2.179-2.894-3.53c-0.772-1.349-1.12-2.796-1.042-4.34
		c0.232-4.243,1.407-8.488,3.53-12.732c2.122-4.243,4.706-8.198,7.755-11.864c3.047-3.664,6.25-6.829,9.607-9.491
		s6.384-4.532,9.086-5.614c1.465-0.463,2.778-0.405,3.935,0.174c1.158,0.579,2.063,1.429,2.72,2.546
		c0.655,1.119,1.042,2.373,1.157,3.762c0.116,1.389-0.173,2.662-0.868,3.82c-1.158,2.161-3.241,3.975-6.25,5.44
		c-3.009,1.467-6.444,2.508-10.302,3.125c2.083,0,4.205,0,6.366,0c2.237,0,4.359-0.018,6.366-0.058
		c2.006-0.038,3.877-0.096,5.614-0.174c1.736-0.076,3.221-0.191,4.456-0.347c1.621-0.154,3.259-0.655,4.919-1.505
		c1.658-0.848,2.952-1.696,3.877-2.546c0.385-0.539,0.712-0.732,0.984-0.579c0.27,0.156,0.211,0.503-0.174,1.042
		C217.16,285.229,215.907,286.251,214.17,287.446z M200.57,275.698c0.076-0.926-0.116-1.639-0.579-2.142
		c-0.463-0.501-1.14-0.732-2.026-0.694c-0.888,0.04-1.91,0.367-3.067,0.984c-2.855,1.621-5.749,3.762-8.681,6.424
		c-2.934,2.662-5.711,5.422-8.334,8.276c2.006,0,4.089-0.231,6.25-0.694c2.159-0.463,4.205-1.138,6.134-2.025
		c1.928-0.886,3.684-1.91,5.267-3.067c1.581-1.158,2.836-2.431,3.762-3.82C200.067,277.706,200.493,276.624,200.57,275.698z"/>
	<path class="welcome" stroke="#000000" stroke-width="2" stroke-miterlimit="10" d="M230.203,305.908c0.617-2.623,1.1-4.822,1.447-6.598
		c0.347-1.774,0.597-3.201,0.752-4.283c-3.782,3.319-8.489,6.869-14.121,10.649c-7.408,5.018-13.311,8.373-17.709,10.07
		c-0.463,0.155-0.81,0.23-1.042,0.23c-0.695,0-1.273-0.27-1.736-0.811c-0.463-0.539-0.619-1.08-0.463-1.62
		c0.463-1.543,3.973-8.256,10.533-20.141c0.154-0.307,0.174-0.964,0.058-1.967c-0.116-1.002-0.058-1.736,0.174-2.199
		c0.307-0.539,1.774-1.389,4.398-2.547c2.778-1.233,4.475-1.89,5.093-1.967c1.08-0.076,1.696,0.541,1.852,1.852
		c-1.62,0.695-4.322,3.704-8.102,9.028c-3.165,4.63-5.48,8.412-6.945,11.343c-0.231,0.619-0.347,1.12-0.347,1.504
		c0,0.771,0.307,1.272,0.926,1.505c0.771,0.23,1.465,0.23,2.083,0c1.774-0.694,3.916-1.754,6.424-3.183
		c2.507-1.427,5.382-3.259,8.624-5.499c2.546-1.774,4.726-3.357,6.54-4.746c1.812-1.389,3.259-2.584,4.34-3.588
		c0.385-0.694,0.829-1.291,1.331-1.794c0.501-0.501,1.022-0.791,1.563-0.868c1.311-0.076,2.295,0.231,2.951,0.926
		c0.655,0.695,0.906,1.429,0.752,2.199c-0.309,0.387-0.599,0.792-0.868,1.215c-0.271,0.425-0.599,0.984-0.984,1.679
		c-1.544,5.556-3.975,13.312-7.292,23.265c11.729-2.158,22.956-3.24,33.683-3.24c3.78,0,6.713,0.23,8.797,0.693
		c0.848,0.156,1.716,0.503,2.604,1.042c0.886,0.541,1.697,1.197,2.431,1.969c0.733,0.771,1.332,1.619,1.794,2.547
		c0.463,0.926,0.694,1.89,0.694,2.894c0,1.002-0.231,1.853-0.694,2.546c-1.004,1.928-3.512,4.476-7.524,7.641
		c-0.618,0.615-1.157,0.926-1.62,0.926c-0.156,0-0.231-0.04-0.231-0.115c0-0.464,0.385-0.966,1.157-1.505
		c4.552-4.322,6.829-8.144,6.829-11.459c0-2.778-1.892-4.321-5.671-4.63c-1.082-0.076-2.335-0.134-3.762-0.174
		c-1.429-0.038-3.029-0.059-4.804-0.059c-13.967,0-25.389,0.926-34.261,2.777c-22.764,64.895-50.35,98.386-82.759,100.469
		c-11.112,0.694-21.297-2.662-30.557-10.069c-9.336-7.331-14.006-15.551-14.006-24.653c0-3.01,0.579-5.903,1.736-8.683
		c5.943-13.813,24.462-26.854,55.559-39.122c10.727-4.167,21.587-7.87,32.583-11.111c10.996-3.24,22.281-5.98,33.856-8.218
		C227.501,316.635,228.814,311.927,230.203,305.908z M106.064,385.253c-0.269,1.195-0.405,2.449-0.405,3.762
		c0,8.104,4.091,15.316,12.269,21.646c8.565,6.558,18.212,9.606,28.937,9.145c18.52-0.693,36.269-14.624,53.244-41.785
		c5.169-8.41,9.896-17.266,14.179-26.563c4.283-9.3,8.12-19.118,11.517-29.458c-27.779,5.71-52.202,13.387-73.268,23.033
		c-25.155,11.575-40.28,23.767-45.373,36.576C106.701,382.84,106.335,384.056,106.064,385.253z"/>
	<path class="welcome" stroke="#000000" stroke-width="2" stroke-miterlimit="10" d="M235.411,333.571c-0.541,0-0.811-0.31-0.811-0.927
		c0-0.23,0.154-0.503,0.463-0.81c4.861-3.396,7.6-7.448,8.218-12.154c0.076-0.615-0.02-1.311-0.289-2.083
		c-0.271-0.771-0.677-1.695-1.215-2.777c-0.31-0.539,0.307-1.39,1.852-2.546c1.543-1.157,2.584-1.658,3.125-1.506
		c0.617,0.155,1.157,0.927,1.62,2.314c0.463,1.39,0.695,2.702,0.695,3.936c0,0.464-0.04,0.772-0.116,0.928
		c-1.389,4.166-5.672,9.26-12.848,15.277C235.95,333.456,235.718,333.571,235.411,333.571z"/>
	<path class="welcome" stroke="#000000" stroke-width="2" stroke-miterlimit="10" d="M335.068,320.724c-2.008,0-3.01-0.693-3.01-2.083
		c0-0.308,0.076-0.693,0.231-1.157c24.615-42.595,36.383-68.676,35.303-78.246c-0.619-6.173-3.936-9.26-9.954-9.26
		c-4.398,0-9.434,1.139-15.105,3.415c-5.671,2.277-12.095,5.614-19.271,10.012c-14.584,9.184-23.305,17.865-26.159,26.043
		c-1.157,3.472-0.926,5.943,0.694,7.408c1.233,1.004,3.511,1.505,6.829,1.505c0.849,0,1.273,0.078,1.273,0.231
		c0,0.309-0.463,0.541-1.389,0.694c-2.702,1.004-5.017,1.004-6.945,0c-0.926-0.463-1.736-1.522-2.431-3.183
		c-0.694-1.658-1.042-3.299-1.042-4.919c0-0.771,0.076-1.349,0.231-1.736c1.696-7.408,9.336-15.934,22.918-25.58
		c13.502-9.491,25.656-15.007,36.46-16.552c3.936-0.463,7.6,0.579,10.996,3.125c3.241,2.315,4.937,5.249,5.093,8.797
		c0.231,6.869-2.778,17.518-9.028,31.946c-2.471,5.787-5.151,11.459-8.044,17.015c-2.894,5.556-6.039,11.112-9.434,16.667
		c-0.387,0.926-0.579,1.505-0.579,1.735c0,0.618,0.231,0.851,0.694,0.694c0.463-0.076,1.042-0.463,1.736-1.157
		c5.015-5.788,10.783-12.385,17.304-19.793c6.52-7.408,13.792-15.702,21.818-24.886c0-0.153,0.579-1.118,1.736-2.894
		c0.617-1.311,1.233-1.89,1.852-1.736c0.848,0.31,1.62,1.082,2.315,2.315c0.694,1.235,1.042,2.393,1.042,3.473
		c0,0.463-0.078,0.85-0.231,1.157c-2.47,4.708-4.612,9.086-6.424,13.138c-1.814,4.051-3.261,7.737-4.341,11.054
		c-2.47,7.563-3.744,15.163-3.819,22.802c-0.078,2.472,0.694,4.496,2.315,6.077c1.62,1.582,3.704,2.372,6.25,2.372
		c0.308,0,0.617,0,0.926,0c0.308,0,0.617-0.038,0.926-0.115c4.243-0.538,10.572-4.745,18.982-12.616
		c8.41-7.793,15.586-16.396,21.528-25.813c3.55-5.556,6.212-10.687,7.986-15.395c1.775-4.706,2.738-9.066,2.896-13.08
		c0.075-5.479-0.695-9.529-2.314-12.153c-0.541-0.539-0.811-1.042-0.811-1.505c0-0.307,0.114-0.463,0.348-0.463
		c0.463,0,1.041,0.425,1.736,1.273c2.391,2.702,3.588,6.984,3.588,12.848c0,7.64-3.474,17.015-10.418,28.127
		c-3.011,4.939-6.349,9.607-10.013,14.005c-3.666,4.398-7.696,8.681-12.096,12.848c-8.721,8.103-15.704,12.731-20.951,13.891
		c-0.463,0.075-0.908,0.134-1.331,0.174c-0.425,0.037-0.83,0.058-1.215,0.058c-2.933,0-5.44-0.966-7.523-2.894
		c-2.083-1.93-3.241-4.438-3.472-7.523c-0.078-0.694-0.116-1.35-0.116-1.968c0-0.695,0-1.466,0-2.315
		c0-12.114,3.742-25.309,11.227-39.584c0.308-0.539,0.463-1.158,0.463-1.852s-0.231-1.042-0.695-1.042
		c-0.463,0-0.966,0.271-1.504,0.81c-4.554,5.249-10.11,11.652-16.668,19.214c-6.56,7.563-14.161,16.437-22.802,26.622
		c-0.926,1.081-1.949,2.432-3.067,4.052c-1.12,1.621-2.373,3.318-3.762,5.093C336.417,320.452,335.839,320.724,335.068,320.724z"/>
	<path class="welcome" stroke="#000000" stroke-width="2" stroke-miterlimit="10" d="M470.201,287.446c-1.736,1.197-3.687,1.95-5.845,2.257
		c-1.313,0.231-3.262,0.387-5.847,0.463c-2.586,0.078-5.422,0.156-8.507,0.231c-3.088,0.078-6.175,0.116-9.261,0.116
		c-3.087,0-5.787,0-8.103,0c-0.851,1.158-1.757,2.451-2.721,3.877c-0.966,1.429-1.871,2.952-2.72,4.572
		c-0.851,1.621-1.582,3.299-2.199,5.035c-0.618,1.736-0.966,3.53-1.042,5.383c-0.077,1.698,0.096,3.087,0.521,4.167
		c0.424,1.081,1.003,1.909,1.736,2.488c0.732,0.579,1.58,0.966,2.546,1.157c0.964,0.192,1.948,0.252,2.952,0.174
		c2.546-0.386,5.266-1.118,8.16-2.199c2.894-1.08,5.382-2.199,7.465-3.356c0.617-0.386,1.08-0.442,1.39-0.174
		c0.309,0.271,0.153,0.6-0.463,0.983c-0.851,0.619-1.853,1.294-3.01,2.026s-2.431,1.445-3.819,2.141
		c-1.39,0.694-2.836,1.331-4.341,1.91s-2.951,0.982-4.341,1.215c-1.157,0.231-2.431,0.098-3.819-0.404
		c-1.389-0.501-2.661-1.254-3.818-2.258c-1.158-1.002-2.124-2.179-2.896-3.53c-0.771-1.349-1.119-2.796-1.041-4.34
		c0.231-4.243,1.407-8.488,3.53-12.732c2.121-4.243,4.706-8.198,7.755-11.864c3.047-3.664,6.25-6.829,9.607-9.491
		c3.355-2.662,6.384-4.532,9.086-5.614c1.465-0.463,2.776-0.405,3.936,0.174c1.157,0.579,2.063,1.429,2.721,2.546
		c0.653,1.119,1.042,2.373,1.156,3.762c0.116,1.389-0.174,2.662-0.868,3.82c-1.156,2.161-3.239,3.975-6.25,5.44
		c-3.01,1.467-6.443,2.508-10.302,3.125c2.084,0,4.205,0,6.366,0c2.237,0,4.358-0.018,6.366-0.058
		c2.006-0.038,3.878-0.096,5.613-0.174c1.735-0.076,3.222-0.191,4.456-0.347c1.62-0.154,3.26-0.655,4.92-1.505
		c1.657-0.848,2.95-1.696,3.878-2.546c0.385-0.539,0.712-0.732,0.982-0.579c0.271,0.156,0.212,0.503-0.174,1.042
		C473.19,285.229,471.938,286.251,470.201,287.446z M456.601,275.698c0.076-0.926-0.114-1.639-0.577-2.142
		c-0.464-0.501-1.141-0.732-2.025-0.694c-0.889,0.04-1.91,0.367-3.067,0.984c-2.855,1.621-5.75,3.762-8.682,6.424
		c-2.934,2.662-5.711,5.422-8.333,8.276c2.005,0,4.089-0.231,6.25-0.694c2.159-0.463,4.205-1.138,6.135-2.025
		c1.929-0.886,3.685-1.91,5.268-3.067c1.58-1.158,2.835-2.431,3.762-3.82C456.099,277.706,456.523,276.624,456.601,275.698z"/>
	<path class="welcome" stroke="#000000" stroke-width="2" stroke-miterlimit="10" d="M458.106,294.275c1.079-4.358,2.584-8.777,4.514-13.253v-0.347
		c28.55-64.741,59.186-98.154,91.904-100.237c11.265-0.617,21.142,2.74,29.631,10.07c8.642,7.254,12.575,15.51,11.807,24.77
		c-0.388,3.01-1.235,5.865-2.547,8.565c-7.332,13.967-27.047,27.009-59.146,39.123c-11.035,4.245-22.206,7.949-33.509,11.112
		c-11.306,3.165-22.822,5.865-34.551,8.102c-1.313,3.628-2.413,7.428-3.299,11.401c-0.89,3.975-1.371,7.543-1.447,10.707
		c-0.155,3.628,0.365,6.25,1.563,7.871c1.194,1.621,2.699,2.547,4.515,2.778c1.812,0.23,3.779-0.097,5.903-0.984
		c2.121-0.886,4.107-2.025,5.961-3.414c1.002-0.771,1.909-1.563,2.72-2.373s1.639-1.678,2.488-2.604
		c0.617-0.617,1.06-0.868,1.331-0.752c0.27,0.116,0.096,0.599-0.521,1.447c-0.618,0.772-1.409,1.661-2.373,2.663
		c-0.966,1.003-1.872,1.893-2.72,2.662c-2.702,2.393-5.44,4.167-8.218,5.324c-2.778,1.157-5.287,1.582-7.524,1.272
		c-2.238-0.308-4.091-1.369-5.556-3.184c-1.467-1.813-2.239-4.532-2.314-8.16C456.563,302.823,457.024,298.636,458.106,294.275z
		 M592.258,217.072c0.309-1.196,0.539-2.449,0.694-3.762c0.848-8.178-2.586-15.394-10.302-21.645
		c-7.718-6.482-17.094-9.529-28.126-9.144c-18.677,0.85-37.618,14.815-56.832,41.9c-5.865,8.103-11.269,16.61-16.205,25.522
		c-4.939,8.913-9.531,18.308-13.773,28.185h0.115c-0.155,0.387-0.311,0.772-0.463,1.157c-0.155,0.387-0.349,0.772-0.579,1.158
		c14.121-2.932,27.433-6.289,39.934-10.07c12.5-3.78,24.268-8.102,35.303-12.963c26.234-11.497,42.556-23.729,48.962-36.692
		C591.523,219.485,591.948,218.27,592.258,217.072z"/>
	<path class="welcome" stroke="#000000" stroke-width="2" stroke-miterlimit="10" d="M518.178,284.9c-2.084,1.505-4.67,2.604-7.755,3.299
		c1.773-1.311,3.664-2.816,5.671-4.514c2.006-1.696,3.474-3.201,4.398-4.514c0.771-1.233,1.195-2.315,1.272-3.241
		c0.076-0.926-0.114-1.639-0.579-2.142c-0.463-0.501-1.139-0.732-2.024-0.694c-0.888,0.04-1.909,0.367-3.067,0.984
		c-2.854,1.621-5.729,3.762-8.623,6.424c-2.894,2.662-5.652,5.46-8.274,8.392l-1.391,1.852c-1.774,2.393-3.588,5.208-5.438,8.45
		c-1.854,3.241-2.935,6.713-3.241,10.417c-0.078,1.697,0.096,3.087,0.521,4.167c0.424,1.081,1.002,1.909,1.735,2.487
		c0.732,0.579,1.581,0.967,2.547,1.157c0.964,0.193,1.947,0.252,2.951,0.174c2.547-0.308,5.268-1.002,8.16-2.083
		c2.894-1.08,5.42-2.236,7.582-3.473c0.616-0.386,1.06-0.443,1.331-0.174c0.27,0.271,0.096,0.599-0.521,0.982
		c-0.85,0.619-1.852,1.295-3.009,2.026c-1.158,0.734-2.431,1.446-3.82,2.141c-1.389,0.694-2.816,1.331-4.281,1.91
		c-1.468,0.579-2.935,0.983-4.398,1.216c-1.157,0.231-2.413,0.097-3.762-0.404c-1.353-0.501-2.624-1.233-3.82-2.199
		c-1.197-0.964-2.181-2.142-2.951-3.53c-0.771-1.39-1.119-2.854-1.042-4.397c0.154-2.778,0.753-5.594,1.794-8.45
		c1.042-2.854,2.373-5.632,3.994-8.334c1.62-2.7,3.452-5.267,5.498-7.697c2.043-2.431,4.146-4.63,6.309-6.598
		c2.158-1.967,4.319-3.626,6.481-4.977c2.159-1.349,4.166-2.333,6.02-2.952c1.465-0.463,2.874-0.501,4.225-0.116
		c1.35,0.387,2.431,1.042,3.241,1.968c0.81,0.926,1.215,2.083,1.215,3.473c0,1.389-0.618,2.817-1.852,4.283
		C521.957,281.833,520.261,283.396,518.178,284.9z M510.307,288.199v-0.116c0.076,0,0.116-0.038,0.116-0.116
		C510.423,288.045,510.383,288.123,510.307,288.199z"/>
	<path class="welcome" stroke="#000000" stroke-width="2" stroke-miterlimit="10" d="M516.791,321.823c-0.619-0.193-1.178-0.482-1.679-0.868
		c-0.503-0.387-0.927-0.85-1.273-1.389s-0.521-1.118-0.521-1.736c0.152-6.404,5.323-15.857,15.51-28.358
		c0.308-0.539,0.23-0.886-0.231-1.042c-0.693-0.385-1.389-0.828-2.083-1.331c-0.693-0.501-1.042-0.984-1.042-1.447
		c0-0.231,0.116-0.539,0.349-0.926c0.23-0.385,1.232-0.617,3.009-0.695c2.854-0.076,4.321-0.116,4.397-0.116
		c0.309,0,0.732-0.154,1.273-0.463c1.696-1.621,3.395-2.469,5.093-2.546c1.233-0.076,2.97,0.619,5.209,2.083
		c0.153,0.078,0.289,0.155,0.405,0.231c0.115,0.078,0.249,0.155,0.405,0.231c1.772,0.078,3.915,0.156,6.424,0.231
		c2.506,0.078,5.382,0.156,8.623,0.231c1.157,0.156,1.736,0.31,1.736,0.463c0,0.463-0.579,0.695-1.736,0.695
		c-2.394,0-3.937,0.463-4.63,1.389c-0.155,0.231-0.155,0.463,0,0.695c0.076,0.231,0.152,0.463,0.23,0.694
		c0.076,0.231,0.115,0.425,0.115,0.579c-0.23,2.934-1.486,6.077-3.762,9.434c-2.276,3.356-5.729,7.002-10.359,10.938
		c-9.028,7.795-16.938,12.191-23.728,13.195C517.986,322.073,517.407,322.015,516.791,321.823z M516.212,318.409
		c0,1.852,1.233,2.546,3.704,2.083c5.246-0.849,11.535-4.63,18.867-11.343c7.715-6.868,12.152-13.118,13.311-18.751
		c0.539-2.315-0.926-3.664-4.397-4.051c-1.853-0.231-3.589-0.25-5.209-0.058c-1.62,0.193-3.125,0.561-4.515,1.1
		c-0.154-0.076-0.811,0.271-1.968,1.042c-8.258,7.64-14.624,16.784-19.099,27.432C516.443,316.713,516.212,317.561,516.212,318.409z
		"/>
	<path class="welcome" stroke="#000000" stroke-width="2" stroke-miterlimit="10" d="M545.727,319.45c-0.076-0.616-0.076-1.117,0-1.504
		c0.076-0.539,0.501-1.429,1.273-2.663c1.08-2.083,2.469-4.416,4.167-7.002c1.696-2.585,3.664-5.499,5.903-8.739
		c2.236-3.241,4.242-5.979,6.019-8.218c1.774-2.237,3.279-3.973,4.514-5.208c0.465-0.385,1.118-0.752,1.969-1.1
		c0.849-0.347,1.465-0.405,1.853-0.173c0.309,0.231,0.153,0.579-0.463,1.042c-0.541,0.309-2.123,2.045-4.746,5.208
		c-3.009,3.473-5.672,7.292-7.986,11.459c-1.004,1.776-1.081,2.663-0.23,2.663c0.385,0,0.811-0.232,1.273-0.695
		c4.63-4.784,10.262-9.22,16.897-13.311c4.861-3.009,8.372-4.167,10.533-3.472c0.771,0.231,1.157,0.81,1.157,1.736
		c0,0.772-0.444,2.161-1.331,4.167c-0.889,2.008-2.182,4.67-3.877,7.987c-0.464,0.694-0.694,1.351-0.694,1.968
		c0,0.85,0.347,1.273,1.041,1.273c0.463,0,0.849-0.153,1.158-0.463c5.399-4.861,10.435-8.97,15.104-12.327
		c4.668-3.356,8.972-5.961,12.906-7.813c0.463-0.231,0.886-0.347,1.272-0.347c1.312,0,1.813,0.811,1.505,2.431
		c-0.31,0.31-0.638,0.677-0.983,1.1c-0.348,0.425-0.753,0.908-1.216,1.447c-1.544,3.396-3.338,7.003-5.382,10.823
		c-2.046,3.819-4.418,7.93-7.118,12.327c-0.772,1.081-1.158,2.007-1.158,2.777c0,0.619,0.271,0.927,0.812,0.927
		c0.308,0,0.616-0.076,0.926-0.231c0.308-0.153,0.693-0.308,1.157-0.464c5.71-2.622,12.849-5.283,21.414-7.985
		c6.019-1.853,11.517-3.317,16.493-4.398c4.978-1.08,9.51-1.736,13.601-1.967c3.316-0.154,6.326-0.018,9.027,0.405
		c2.7,0.425,5.094,1.255,7.178,2.489c4.242,2.47,6.365,5.518,6.365,9.144c0,1.081-0.155,2.083-0.463,3.01
		c-0.541,1.544-1.505,2.586-2.895,3.125c-0.618,0.387-1.119,0.578-1.504,0.578c-0.311,0-0.464-0.115-0.464-0.347
		c0-0.309,0.29-0.655,0.867-1.042c0.579-0.386,1.217-1.39,1.91-3.011c0.539-1.311,0.812-2.391,0.812-3.239
		c0-2.7-1.391-4.979-4.167-6.83c-2.935-2.005-6.984-3.009-12.153-3.009c-0.619,0-1.273,0.02-1.968,0.058
		c-0.694,0.04-1.391,0.098-2.084,0.173c-11.343,1.158-22.61,3.744-33.798,7.755c-11.808,4.167-21.646,9.26-29.517,15.279
		c-0.387,0.23-0.733,0.347-1.042,0.347c-0.926,0-1.389-0.425-1.389-1.272c0-0.31,0.116-0.578,0.348-0.811l2.777-2.777
		c-0.231-0.771-0.193-1.696,0.116-2.777c6.326-7.794,10.84-15.239,13.542-22.34c0.539-1.08,0.811-2.121,0.811-3.125
		c0-1.311-0.541-1.968-1.621-1.968c-0.617,0-1.389,0.347-2.313,1.042c-11.575,9.26-18.982,16.204-22.225,20.834
		c-0.154,0.155-0.443,0.388-0.867,0.693c-0.426,0.311-1.063,0.619-1.909,0.927c-1.004,0.464-1.814,0.83-2.433,1.101
		c-0.617,0.271-1.118,0.521-1.504,0.752c-0.463,0.23-0.945,0.078-1.446-0.463c-0.504-0.539-0.6-1.002-0.289-1.39
		c2.313-3.395,4.301-6.655,5.961-9.781c1.657-3.125,2.95-6.153,3.877-9.086c0.308-0.694,0.464-1.427,0.464-2.199
		c0-1.389-0.579-2.083-1.736-2.083c-0.31,0-0.811,0.116-1.505,0.347c-0.771,0.387-1.854,1.062-3.241,2.026
		c-1.389,0.966-3.087,2.335-5.093,4.109c-4.477,3.704-8.334,7.408-11.575,11.111c-0.85,0.927-1.813,2.104-2.894,3.53
		c-1.081,1.43-2.276,3.106-3.588,5.035c-0.231,0.388-1.157,0.889-2.778,1.505c-0.851,0.31-1.504,0.579-1.967,0.811
		c-0.464,0.231-0.772,0.425-0.928,0.578C545.958,319.991,545.803,319.838,545.727,319.45z"/>
	<path class="welcome" stroke="#000000" stroke-width="2" stroke-miterlimit="10" d="M666.625,287.446c-1.736,1.197-3.686,1.95-5.845,2.257
		c-1.313,0.231-3.261,0.387-5.847,0.463c-2.586,0.078-5.422,0.156-8.507,0.231c-3.088,0.078-6.175,0.116-9.261,0.116
		c-3.087,0-5.787,0-8.102,0c-0.852,1.158-1.758,2.451-2.722,3.877c-0.966,1.429-1.871,2.952-2.72,4.572
		c-0.85,1.621-1.582,3.299-2.199,5.035c-0.618,1.736-0.966,3.53-1.042,5.383c-0.077,1.698,0.097,3.087,0.521,4.167
		c0.423,1.081,1.002,1.909,1.735,2.488c0.732,0.579,1.58,0.966,2.547,1.157c0.964,0.192,1.947,0.252,2.951,0.174
		c2.547-0.386,5.267-1.118,8.16-2.199c2.895-1.08,5.382-2.199,7.465-3.356c0.617-0.386,1.08-0.442,1.391-0.174
		c0.308,0.271,0.152,0.6-0.463,0.983c-0.852,0.619-1.854,1.294-3.011,2.026c-1.156,0.732-2.431,1.445-3.818,2.141
		c-1.391,0.694-2.836,1.331-4.341,1.91c-1.506,0.579-2.951,0.982-4.342,1.215c-1.156,0.231-2.431,0.098-3.818-0.404
		c-1.389-0.501-2.662-1.254-3.819-2.258c-1.158-1.002-2.124-2.179-2.895-3.53c-0.771-1.349-1.119-2.796-1.041-4.34
		c0.23-4.243,1.406-8.488,3.529-12.732c2.121-4.243,4.706-8.198,7.756-11.864c3.047-3.664,6.25-6.829,9.606-9.491
		s6.384-4.532,9.086-5.614c1.465-0.463,2.777-0.405,3.937,0.174c1.156,0.579,2.063,1.429,2.72,2.546
		c0.654,1.119,1.042,2.373,1.157,3.762c0.115,1.389-0.175,2.662-0.868,3.82c-1.157,2.161-3.24,3.975-6.25,5.44
		c-3.01,1.467-6.444,2.508-10.302,3.125c2.084,0,4.204,0,6.365,0c2.237,0,4.358-0.018,6.366-0.058
		c2.006-0.038,3.878-0.096,5.613-0.174c1.736-0.076,3.222-0.191,4.457-0.347c1.62-0.154,3.259-0.655,4.919-1.505
		c1.658-0.848,2.951-1.696,3.878-2.546c0.385-0.539,0.712-0.732,0.982-0.579c0.271,0.156,0.213,0.503-0.174,1.042
		C669.614,285.229,668.361,286.251,666.625,287.446z M653.024,275.698c0.075-0.926-0.115-1.639-0.578-2.142
		c-0.463-0.501-1.141-0.732-2.025-0.694c-0.889,0.04-1.91,0.367-3.067,0.984c-2.855,1.621-5.75,3.762-8.682,6.424
		c-2.934,2.662-5.711,5.422-8.333,8.276c2.005,0,4.089-0.231,6.25-0.694c2.159-0.463,4.205-1.138,6.135-2.025
		c1.929-0.886,3.685-1.91,5.268-3.067c1.58-1.158,2.835-2.431,3.762-3.82C652.521,277.706,652.947,276.624,653.024,275.698z"/>
</g>
<g id="iam">
	<path class="iamc" d="M338.676,253.12c-3.785,7.359-7.833,14.403-12.143,21.131c-4.311,6.729-8.815,12.878-13.509,18.45
		c-4.697,5.572-9.498,9.935-14.403,13.089c-1.892,1.262-3.89,2.244-5.992,2.943c-2.103,0.702-4.118,1.139-6.045,1.314
		c-1.929,0.174-3.75,0.087-5.467-0.263c-1.718-0.35-3.172-0.98-4.363-1.893c-0.772-0.699-1.403-1.717-1.892-3.049
		c-0.491-1.33-0.877-2.592-1.157-3.784c-0.21-0.631-0.07-1.016,0.421-1.157c0.489-0.139,0.805,0.105,0.946,0.736
		c0.35,1.192,0.894,2.297,1.63,3.312c0.736,1.017,1.524,1.876,2.365,2.576c0.91,0.771,2.05,1.298,3.417,1.576
		c1.367,0.281,2.873,0.352,4.521,0.211c1.646-0.14,3.364-0.525,5.151-1.156s3.522-1.507,5.204-2.629
		c2.943-2.031,5.887-4.642,8.831-7.832c2.943-3.188,5.816-6.745,8.621-10.671c2.802-3.924,5.536-8.095,8.2-12.51
		c2.663-4.416,5.168-8.884,7.517-13.404c2.348-4.521,4.537-8.936,6.571-13.247c2.032-4.311,3.819-8.322,5.362-12.038
		c-4.206,0.772-8.411,1.824-12.616,3.154c-4.205,1.332-8.218,2.822-12.038,4.468c-3.821,1.647-7.412,3.435-10.776,5.362
		c-3.364,1.928-6.344,3.874-8.936,5.834c-1.753,1.403-3.487,3.033-5.204,4.889c-1.718,1.858-2.856,4.153-3.417,6.886
		c-0.281,1.403-0.247,2.733,0.105,3.995c0.35,1.261,0.7,2.278,1.051,3.049c0.14,0.351,0.122,0.63-0.053,0.841
		c-0.176,0.21-0.404,0.141-0.683-0.21c-0.631-0.77-1.157-1.892-1.577-3.364c-0.42-1.472-0.667-2.873-0.736-4.206
		c-0.141-2.453,0.56-4.8,2.103-7.043c1.541-2.243,3.714-4.555,6.518-6.939c2.382-2.032,5.326-4.047,8.831-6.045
		c3.504-1.998,7.323-3.89,11.459-5.677c4.134-1.787,8.532-3.417,13.194-4.888c4.66-1.472,9.373-2.733,14.14-3.785
		c1.12-0.35,1.892-0.77,2.313-1.261c0.279-0.279,0.63-0.402,1.051-0.368c0.42,0.036,0.788,0.176,1.104,0.42
		c0.315,0.247,0.561,0.544,0.736,0.894c0.174,0.352,0.192,0.667,0.052,0.946C345.93,238.647,342.46,245.76,338.676,253.12z"/>
	<path class="iamc" d="M366.008,308.944c-1.753,0-2.628-1.226-2.628-3.68c0-4.976,3.89-11.354,11.669-19.134
		c3.574-3.575,6.939-6.466,10.094-8.673c3.154-2.208,6.098-3.872,8.83-4.994c0.631-0.21,1.314-0.403,2.051-0.579
		c0.736-0.174,1.488-0.263,2.26-0.263c0.842,0,1.682,0.089,2.523,0.263c0.842,0.176,1.682,0.404,2.523,0.684
		c1.191,0.141,1.855,0.176,1.998,0.105c1.26-0.21,2.17-0.665,2.732-1.367c0.141-0.14,0.35-0.21,0.631-0.21
		c0.279,0,0.525,0.176,0.736,0.525c0.209,0.352,0.279,0.596,0.209,0.736c-2.033,3.154-4.047,6.255-6.045,9.304
		c-1.996,3.049-3.941,6.15-5.834,9.304c-1.473,2.454-2.91,5.274-4.311,8.463c-1.402,3.19-2.682,6.413-3.838,9.672
		s-2.154,6.36-2.996,9.305c-0.84,2.943-1.402,5.431-1.682,7.464c-0.07,0.35-0.105,0.665-0.105,0.946c0,0.35,0,0.699,0,1.051
		c0,2.382,0.736,4.153,2.209,5.31c1.471,1.156,3.469,1.734,5.992,1.734s5.01-0.42,7.463-1.262c3.715-1.261,8.551-4.275,14.51-9.041
		c2.873-2.313,5.447-4.696,7.727-7.148c2.277-2.454,4.258-4.768,5.939-6.938c0.631-0.702,1.051-1.052,1.262-1.052
		c0.068,0.069,0.105,0.174,0.105,0.315c0,0.279-0.141,0.665-0.42,1.156c-1.613,2.382-3.559,4.905-5.836,7.569
		c-2.277,2.663-4.994,5.326-8.146,7.99c-2.945,2.382-5.592,4.345-7.938,5.888c-2.35,1.54-4.506,2.662-6.467,3.364
		c-0.982,0.35-1.963,0.612-2.943,0.788c-0.982,0.174-2.033,0.263-3.154,0.263c-1.682,0-3.225-0.263-4.625-0.788
		c-1.402-0.526-2.664-1.175-3.785-1.945c-1.332-0.772-2.26-1.876-2.785-3.312c-0.525-1.438-0.754-3.067-0.684-4.889
		c0.068-1.472,0.367-3.435,0.893-5.888c0.527-2.454,1.209-5.063,2.051-7.832c0.842-2.768,1.752-5.52,2.734-8.253
		c0.98-2.733,1.961-5.151,2.943-7.254c1.189-2.522,2.365-4.87,3.521-7.043c1.156-2.172,2.328-4.169,3.521-5.993
		c0.49-0.771,0.455-1.156-0.105-1.156c-0.07,0-0.176,0.07-0.314,0.21c-1.682,2.034-3.697,4.171-6.045,6.413
		c-2.35,2.244-5.064,4.696-8.148,7.359c-6.168,5.188-11.459,9.077-15.875,11.669C367.515,308.665,366.708,308.944,366.008,308.944z
		 M369.688,301.585c0,1.682,0.631,2.523,1.893,2.523c0.49,0,1.016-0.175,1.576-0.526c3.926-2.452,8.061-5.764,12.406-9.935
		c4.346-4.169,9.006-9.233,13.982-15.191c0.211-0.21,0.316-0.455,0.316-0.736c0-0.771-0.457-1.488-1.367-2.155
		c-0.912-0.665-2.068-0.999-3.471-0.999c-0.771,0-1.576,0.105-2.418,0.315c-3.295,0.841-7.463,4.031-12.51,9.567
		c-2.383,2.664-4.398,5.222-6.045,7.674c-1.648,2.454-2.961,4.802-3.943,7.044C369.828,299.938,369.688,300.744,369.688,301.585z"/>
	<path class="iamc" d="M395.234,308.944c-0.07-0.561-0.07-1.016,0-1.367c0.069-0.489,0.455-1.296,1.156-2.418c0.981-1.893,2.242-4.011,3.785-6.36
		c1.541-2.348,3.328-4.993,5.361-7.938c2.032-2.943,3.854-5.431,5.467-7.464c1.611-2.032,2.979-3.609,4.101-4.731
		c0.42-0.35,1.015-0.684,1.787-0.999c0.771-0.315,1.33-0.368,1.682-0.158c0.279,0.21,0.14,0.526-0.42,0.946
		c-0.491,0.281-1.929,1.858-4.311,4.731c-2.733,3.154-5.151,6.623-7.254,10.408c-0.912,1.613-0.982,2.418-0.21,2.418
		c0.35,0,0.735-0.21,1.156-0.631c4.205-4.345,9.32-8.374,15.349-12.09c4.416-2.733,7.604-3.785,9.567-3.154
		c0.699,0.21,1.051,0.736,1.051,1.577c0,0.701-0.403,1.963-1.209,3.785c-0.807,1.823-1.98,4.241-3.521,7.254
		c-0.421,0.631-0.631,1.228-0.631,1.787c0,0.772,0.315,1.156,0.946,1.156c0.42,0,0.771-0.14,1.051-0.42
		c4.905-4.416,9.479-8.148,13.72-11.197c4.24-3.049,8.147-5.414,11.723-7.096c0.42-0.21,0.805-0.315,1.156-0.315
		c1.19,0,1.646,0.736,1.366,2.208c-0.28,0.281-0.578,0.615-0.894,0.999c-0.315,0.386-0.683,0.825-1.104,1.314
		c-1.403,3.085-3.032,6.36-4.889,9.83c-1.857,3.469-4.013,7.202-6.466,11.197c-0.701,0.982-1.051,1.823-1.051,2.523
		c0,0.562,0.244,0.841,0.735,0.841c0.279,0,0.561-0.069,0.842-0.211c0.279-0.139,0.63-0.278,1.051-0.42
		c5.186-2.382,11.67-4.8,19.449-7.254c5.467-1.683,10.461-3.013,14.981-3.995c4.521-0.981,8.637-1.577,12.353-1.787
		c3.013-0.14,5.746-0.017,8.2,0.368c2.453,0.386,4.626,1.14,6.519,2.26c3.854,2.244,5.782,5.012,5.782,8.306
		c0,0.982-0.142,1.893-0.421,2.733c-0.491,1.402-1.366,2.349-2.628,2.838c-0.563,0.352-1.018,0.526-1.367,0.526
		c-0.28,0-0.42-0.105-0.42-0.315c0-0.279,0.263-0.595,0.788-0.946c0.525-0.35,1.104-1.262,1.734-2.733
		c0.49-1.191,0.736-2.172,0.736-2.943c0-2.453-1.262-4.521-3.785-6.203c-2.664-1.821-6.344-2.733-11.038-2.733
		c-0.563,0-1.157,0.019-1.787,0.053c-0.631,0.036-1.262,0.089-1.893,0.157c-10.303,1.052-20.537,3.4-30.698,7.044
		c-10.724,3.785-19.66,8.41-26.809,13.877c-0.352,0.211-0.667,0.315-0.946,0.315c-0.841,0-1.262-0.386-1.262-1.156
		c0-0.28,0.105-0.525,0.315-0.735l2.523-2.523c-0.21-0.7-0.176-1.541,0.105-2.523c5.746-7.078,9.846-13.841,12.3-20.29
		c0.489-0.98,0.736-1.927,0.736-2.838c0-1.191-0.491-1.788-1.472-1.788c-0.563,0-1.262,0.315-2.104,0.946
		c-10.513,8.411-17.241,14.719-20.185,18.924c-0.142,0.141-0.404,0.352-0.789,0.631c-0.386,0.28-0.964,0.562-1.734,0.841
		c-0.911,0.421-1.647,0.754-2.208,0.999c-0.562,0.246-1.017,0.473-1.366,0.683c-0.421,0.211-0.859,0.071-1.314-0.42
		c-0.456-0.489-0.544-0.91-0.263-1.262c2.103-3.083,3.906-6.045,5.414-8.884c1.507-2.838,2.681-5.588,3.522-8.252
		c0.279-0.631,0.42-1.296,0.42-1.998c0-1.262-0.525-1.893-1.576-1.893c-0.281,0-0.736,0.105-1.367,0.315
		c-0.701,0.352-1.682,0.964-2.943,1.84c-1.262,0.877-2.805,2.121-4.626,3.732c-4.065,3.364-7.569,6.729-10.513,10.093
		c-0.772,0.841-1.648,1.91-2.629,3.206c-0.982,1.298-2.068,2.822-3.259,4.573c-0.21,0.352-1.052,0.807-2.523,1.366
		c-0.771,0.281-1.366,0.526-1.787,0.736s-0.701,0.386-0.841,0.525C395.445,309.436,395.304,309.296,395.234,308.944z"/>
</g>
<g>
	<path class="logo" d="M54.943,323.579l-15.458-29.305h-7.407v29.305h-15.35v-76.752H47c27.374,0,30.057,38.537,7.514,45.085l17.82,31.667H54.943
		z M32.079,279.353h13.525c10.413,0,10.413-17.175,0-17.175H32.079V279.353z"/>
	<path class="logo" d="M119.462,245.539c52.814,0,52.814,79.113,0,79.113S66.648,245.539,119.462,245.539z M119.462,261.319
		c-30.701,0-30.701,47.447,0,47.447C150.163,308.766,150.163,261.319,119.462,261.319z"/>
	<path class="logo" d="M211.784,323.579v-30.701h-22.972v30.701h-15.351v-76.752h15.351v30.701h22.972v-30.701h15.35v76.752H211.784z"/>
	<path class="logo" d="M244.421,323.579v-76.752h15.351v76.752H244.421z"/>
	<path class="logo" d="M289.722,323.579v-61.402h-19.107v-15.243h53.565v15.243h-19.107v61.402H289.722z"/>
	<path class="logo" d="M378.933,323.579v-61.402h-19.108v-15.243h53.565v15.243h-19.107v61.402H378.933z"/>
	<path class="logo" d="M443.665,244.036h1.61l32.312,79.543h-17.283l-3.113-8.266h-25.44l-3.006,8.266h-17.39L443.665,244.036z M451.502,300.929
		l-6.978-19.966l-7.192,19.966H451.502z"/>
	<path class="logo" d="M503.677,323.579h-15.351v-78.362h4.079l38.752,45.085v-43.367h15.457v78.255h-4.079l-38.858-43.368V323.579z"/>
	<path class="logo" d="M587.411,325.189l-31.452-78.362h17.282l15.458,39.181l15.028-38.43h0.751l15.028,38.43l15.458-39.181h17.282
		l-31.345,78.04h-2.791l-14.062-34.028l-13.955,34.351H587.411z"/>
	<path class="logo" d="M678.661,244.036h1.61l32.312,79.543H695.3l-3.113-8.266h-25.44l-3.006,8.266h-17.39L678.661,244.036z M686.498,300.929
		l-6.978-19.966l-7.192,19.966H686.498z"/>
	<path class="logo" d="M761.537,323.579l-15.458-29.305h-7.406v29.305h-15.351v-76.752h30.271c27.373,0,30.057,38.537,7.514,45.085l17.819,31.667
		H761.537z M738.673,279.353h13.525c10.412,0,10.412-17.175,0-17.175h-13.525V279.353z"/>
</g>
<g id="fivecopy">
     <g class="text-copy">
     <path  d="M54.943,323.579l-15.458-29.305h-7.407v29.305h-15.35v-76.752H47c27.374,0,30.057,38.537,7.514,45.085l17.82,31.667H54.943
		z M32.079,279.353h13.525c10.413,0,10.413-17.175,0-17.175H32.079V279.353z"/>
	<path  d="M119.462,245.539c52.814,0,52.814,79.113,0,79.113S66.648,245.539,119.462,245.539z M119.462,261.319
		c-30.701,0-30.701,47.447,0,47.447C150.163,308.766,150.163,261.319,119.462,261.319z"/>
	<path  d="M211.784,323.579v-30.701h-22.972v30.701h-15.351v-76.752h15.351v30.701h22.972v-30.701h15.35v76.752H211.784z"/>
	<path  d="M244.421,323.579v-76.752h15.351v76.752H244.421z"/>
	<path  d="M289.722,323.579v-61.402h-19.107v-15.243h53.565v15.243h-19.107v61.402H289.722z"/>
	<path  d="M378.933,323.579v-61.402h-19.108v-15.243h53.565v15.243h-19.107v61.402H378.933z"/>
	<path  d="M443.665,244.036h1.61l32.312,79.543h-17.283l-3.113-8.266h-25.44l-3.006,8.266h-17.39L443.665,244.036z M451.502,300.929
		l-6.978-19.966l-7.192,19.966H451.502z"/>
	<path  d="M503.677,323.579h-15.351v-78.362h4.079l38.752,45.085v-43.367h15.457v78.255h-4.079l-38.858-43.368V323.579z"/>
	<path  d="M587.411,325.189l-31.452-78.362h17.282l15.458,39.181l15.028-38.43h0.751l15.028,38.43l15.458-39.181h17.282
		l-31.345,78.04h-2.791l-14.062-34.028l-13.955,34.351H587.411z"/>
	<path  d="M678.661,244.036h1.61l32.312,79.543H695.3l-3.113-8.266h-25.44l-3.006,8.266h-17.39L678.661,244.036z M686.498,300.929
		l-6.978-19.966l-7.192,19.966H686.498z"/>
	<path  d="M761.537,323.579l-15.458-29.305h-7.406v29.305h-15.351v-76.752h30.271c27.373,0,30.057,38.537,7.514,45.085l17.819,31.667
		H761.537z M738.673,279.353h13.525c10.412,0,10.412-17.175,0-17.175h-13.525V279.353z"/>
	</g>
	 <g class="text-copy">
     <path  d="M54.943,323.579l-15.458-29.305h-7.407v29.305h-15.35v-76.752H47c27.374,0,30.057,38.537,7.514,45.085l17.82,31.667H54.943
		z M32.079,279.353h13.525c10.413,0,10.413-17.175,0-17.175H32.079V279.353z"/>
	<path  d="M119.462,245.539c52.814,0,52.814,79.113,0,79.113S66.648,245.539,119.462,245.539z M119.462,261.319
		c-30.701,0-30.701,47.447,0,47.447C150.163,308.766,150.163,261.319,119.462,261.319z"/>
	<path  d="M211.784,323.579v-30.701h-22.972v30.701h-15.351v-76.752h15.351v30.701h22.972v-30.701h15.35v76.752H211.784z"/>
	<path  d="M244.421,323.579v-76.752h15.351v76.752H244.421z"/>
	<path  d="M289.722,323.579v-61.402h-19.107v-15.243h53.565v15.243h-19.107v61.402H289.722z"/>
	<path  d="M378.933,323.579v-61.402h-19.108v-15.243h53.565v15.243h-19.107v61.402H378.933z"/>
	<path  d="M443.665,244.036h1.61l32.312,79.543h-17.283l-3.113-8.266h-25.44l-3.006,8.266h-17.39L443.665,244.036z M451.502,300.929
		l-6.978-19.966l-7.192,19.966H451.502z"/>
	<path  d="M503.677,323.579h-15.351v-78.362h4.079l38.752,45.085v-43.367h15.457v78.255h-4.079l-38.858-43.368V323.579z"/>
	<path  d="M587.411,325.189l-31.452-78.362h17.282l15.458,39.181l15.028-38.43h0.751l15.028,38.43l15.458-39.181h17.282
		l-31.345,78.04h-2.791l-14.062-34.028l-13.955,34.351H587.411z"/>
	<path  d="M678.661,244.036h1.61l32.312,79.543H695.3l-3.113-8.266h-25.44l-3.006,8.266h-17.39L678.661,244.036z M686.498,300.929
		l-6.978-19.966l-7.192,19.966H686.498z"/>
	<path  d="M761.537,323.579l-15.458-29.305h-7.406v29.305h-15.351v-76.752h30.271c27.373,0,30.057,38.537,7.514,45.085l17.819,31.667
		H761.537z M738.673,279.353h13.525c10.412,0,10.412-17.175,0-17.175h-13.525V279.353z"/>
	</g>
	 <g class="text-copy">
     <path  d="M54.943,323.579l-15.458-29.305h-7.407v29.305h-15.35v-76.752H47c27.374,0,30.057,38.537,7.514,45.085l17.82,31.667H54.943
		z M32.079,279.353h13.525c10.413,0,10.413-17.175,0-17.175H32.079V279.353z"/>
	<path  d="M119.462,245.539c52.814,0,52.814,79.113,0,79.113S66.648,245.539,119.462,245.539z M119.462,261.319
		c-30.701,0-30.701,47.447,0,47.447C150.163,308.766,150.163,261.319,119.462,261.319z"/>
	<path  d="M211.784,323.579v-30.701h-22.972v30.701h-15.351v-76.752h15.351v30.701h22.972v-30.701h15.35v76.752H211.784z"/>
	<path  d="M244.421,323.579v-76.752h15.351v76.752H244.421z"/>
	<path  d="M289.722,323.579v-61.402h-19.107v-15.243h53.565v15.243h-19.107v61.402H289.722z"/>
	<path  d="M378.933,323.579v-61.402h-19.108v-15.243h53.565v15.243h-19.107v61.402H378.933z"/>
	<path  d="M443.665,244.036h1.61l32.312,79.543h-17.283l-3.113-8.266h-25.44l-3.006,8.266h-17.39L443.665,244.036z M451.502,300.929
		l-6.978-19.966l-7.192,19.966H451.502z"/>
	<path  d="M503.677,323.579h-15.351v-78.362h4.079l38.752,45.085v-43.367h15.457v78.255h-4.079l-38.858-43.368V323.579z"/>
	<path  d="M587.411,325.189l-31.452-78.362h17.282l15.458,39.181l15.028-38.43h0.751l15.028,38.43l15.458-39.181h17.282
		l-31.345,78.04h-2.791l-14.062-34.028l-13.955,34.351H587.411z"/>
	<path  d="M678.661,244.036h1.61l32.312,79.543H695.3l-3.113-8.266h-25.44l-3.006,8.266h-17.39L678.661,244.036z M686.498,300.929
		l-6.978-19.966l-7.192,19.966H686.498z"/>
	<path  d="M761.537,323.579l-15.458-29.305h-7.406v29.305h-15.351v-76.752h30.271c27.373,0,30.057,38.537,7.514,45.085l17.819,31.667
		H761.537z M738.673,279.353h13.525c10.412,0,10.412-17.175,0-17.175h-13.525V279.353z"/>
	</g>
	 <g class="text-copy">
     <path  d="M54.943,323.579l-15.458-29.305h-7.407v29.305h-15.35v-76.752H47c27.374,0,30.057,38.537,7.514,45.085l17.82,31.667H54.943
		z M32.079,279.353h13.525c10.413,0,10.413-17.175,0-17.175H32.079V279.353z"/>
	<path  d="M119.462,245.539c52.814,0,52.814,79.113,0,79.113S66.648,245.539,119.462,245.539z M119.462,261.319
		c-30.701,0-30.701,47.447,0,47.447C150.163,308.766,150.163,261.319,119.462,261.319z"/>
	<path  d="M211.784,323.579v-30.701h-22.972v30.701h-15.351v-76.752h15.351v30.701h22.972v-30.701h15.35v76.752H211.784z"/>
	<path  d="M244.421,323.579v-76.752h15.351v76.752H244.421z"/>
	<path  d="M289.722,323.579v-61.402h-19.107v-15.243h53.565v15.243h-19.107v61.402H289.722z"/>
	<path  d="M378.933,323.579v-61.402h-19.108v-15.243h53.565v15.243h-19.107v61.402H378.933z"/>
	<path  d="M443.665,244.036h1.61l32.312,79.543h-17.283l-3.113-8.266h-25.44l-3.006,8.266h-17.39L443.665,244.036z M451.502,300.929
		l-6.978-19.966l-7.192,19.966H451.502z"/>
	<path  d="M503.677,323.579h-15.351v-78.362h4.079l38.752,45.085v-43.367h15.457v78.255h-4.079l-38.858-43.368V323.579z"/>
	<path  d="M587.411,325.189l-31.452-78.362h17.282l15.458,39.181l15.028-38.43h0.751l15.028,38.43l15.458-39.181h17.282
		l-31.345,78.04h-2.791l-14.062-34.028l-13.955,34.351H587.411z"/>
	<path  d="M678.661,244.036h1.61l32.312,79.543H695.3l-3.113-8.266h-25.44l-3.006,8.266h-17.39L678.661,244.036z M686.498,300.929
		l-6.978-19.966l-7.192,19.966H686.498z"/>
	<path  d="M761.537,323.579l-15.458-29.305h-7.406v29.305h-15.351v-76.752h30.271c27.373,0,30.057,38.537,7.514,45.085l17.819,31.667
		H761.537z M738.673,279.353h13.525c10.412,0,10.412-17.175,0-17.175h-13.525V279.353z"/>
	</g>
	 <g class="text-copy">
     <path  d="M54.943,323.579l-15.458-29.305h-7.407v29.305h-15.35v-76.752H47c27.374,0,30.057,38.537,7.514,45.085l17.82,31.667H54.943
		z M32.079,279.353h13.525c10.413,0,10.413-17.175,0-17.175H32.079V279.353z"/>
	<path  d="M119.462,245.539c52.814,0,52.814,79.113,0,79.113S66.648,245.539,119.462,245.539z M119.462,261.319
		c-30.701,0-30.701,47.447,0,47.447C150.163,308.766,150.163,261.319,119.462,261.319z"/>
	<path  d="M211.784,323.579v-30.701h-22.972v30.701h-15.351v-76.752h15.351v30.701h22.972v-30.701h15.35v76.752H211.784z"/>
	<path  d="M244.421,323.579v-76.752h15.351v76.752H244.421z"/>
	<path  d="M289.722,323.579v-61.402h-19.107v-15.243h53.565v15.243h-19.107v61.402H289.722z"/>
	<path  d="M378.933,323.579v-61.402h-19.108v-15.243h53.565v15.243h-19.107v61.402H378.933z"/>
	<path  d="M443.665,244.036h1.61l32.312,79.543h-17.283l-3.113-8.266h-25.44l-3.006,8.266h-17.39L443.665,244.036z M451.502,300.929
		l-6.978-19.966l-7.192,19.966H451.502z"/>
	<path  d="M503.677,323.579h-15.351v-78.362h4.079l38.752,45.085v-43.367h15.457v78.255h-4.079l-38.858-43.368V323.579z"/>
	<path  d="M587.411,325.189l-31.452-78.362h17.282l15.458,39.181l15.028-38.43h0.751l15.028,38.43l15.458-39.181h17.282
		l-31.345,78.04h-2.791l-14.062-34.028l-13.955,34.351H587.411z"/>
	<path  d="M678.661,244.036h1.61l32.312,79.543H695.3l-3.113-8.266h-25.44l-3.006,8.266h-17.39L678.661,244.036z M686.498,300.929
		l-6.978-19.966l-7.192,19.966H686.498z"/>
	<path  d="M761.537,323.579l-15.458-29.305h-7.406v29.305h-15.351v-76.752h30.271c27.373,0,30.057,38.537,7.514,45.085l17.819,31.667
		H761.537z M738.673,279.353h13.525c10.412,0,10.412-17.175,0-17.175h-13.525V279.353z"/>
	</g>
</g>
</svg>
