<svg version="1.1" id="logo" xmlns="http://www.w3.org/2000/svg" xmlns:xlink="http://www.w3.org/1999/xlink" x="0px" y="0px"
	 width="792px" height="119px" viewBox="0 0 792 119" style="enable-background:new 0 0 792 119;" xml:space="preserve">
<defs>
	<style type="text/css">
		.st0
		{
			fill : #ffffff;
			stroke:#38C7C6;
			stroke-width:6;
			stroke-miterlimit:10;
			stroke-dasharray : 900;
			stroke-dashoffset : 0;
			-webkit-animation : anim 4s linear alternate infinite;
			-o-animation : anim 4s linear alternate infinite;
			-moz-animation : anim 4s linear alternate infinite;
			animation : anim 4s linear alternate infinite;
		}
		@-webkit-keyframes anim{
		0%,10%{
			stroke-dashoffset : 900;
		}
		90%,100%{
			stroke-dashoffset : 0;
		}
		}
	</style>
</defs>
<g>
	<path class="st0" id="ch0" d="M120.802,31.584c-0.399,0.16-0.798,0-0.958-0.319c-2.394-5.506-8.14-6.704-13.806-6.704
		c-2.314,0-4.469,0.24-6.544,0.639c0.08,0,0.16,0.08,0.239,0.08c5.107,1.995,8.699,4.788,11.173,7.661
		c5.027,5.746,5.746,12.051,5.746,14.764c0,1.437-0.16,7.262-2.394,10.614c-1.995,3.83-5.666,8.299-12.529,11.97
		C96.303,73.162,90.637,74.2,85.37,74.2c-1.117,0-2.314-0.08-3.432-0.16c1.038,4.708,0.559,9.498-0.239,14.365
		c-0.559,3.033-1.517,6.783-0.399,10.055c0.798,2.234,2.953,4.07,5.666,4.07c3.512,0,6.863-2.234,9.497-4.709
		c0.239-0.238,0.718-0.158,0.958,0.08c0.319,0.32,0.319,0.719,0,1.037c-2.554,2.555-6.544,5.029-10.455,5.029
		c-2.953,0-5.905-1.916-7.022-5.029c-1.197-3.271-0.399-7.102,0.319-10.773c0.718-4.787,1.117-9.416,0.16-14.284
		c-11.651-1.356-17.796-5.188-21.787-7.741c-4.07,6.783-7.581,13.328-10.853,19.154c-3.671,6.463-7.103,11.891-11.252,15.561
		c-2.793,2.475-6.544,4.549-11.013,4.549c-4.23,0-8.379-2.553-9.417-7.102c-0.08-0.4,0.16-0.799,0.559-0.879s0.798,0.16,0.878,0.559
		c0.798,3.672,4.07,5.986,7.98,5.986c3.671,0,7.103-1.598,10.055-4.23c2.633-2.234,5.027-5.426,7.342-9.178
		c4.469-6.863,8.858-15.88,14.604-25.297c-1.676-1.276-3.033-3.352-3.033-5.746c0.08-5.426,5.347-6.304,9.896-5.027
		c3.032-4.629,6.145-9.018,9.417-13.008c5.188-6.384,10.933-11.731,17.557-15.003c1.037-0.479,2.154-0.958,3.271-1.357
		c-5.027-1.356-10.215-2.075-15.562-2.075c-0.878,0-3.671,0.08-7.262,0.798c-3.511,0.639-7.741,1.995-11.412,4.549
		c1.915,2.953,2.554,6.464,2.554,10.295c0,3.91-1.596,9.496-6.624,9.496c-3.511,0-5.825-2.793-5.746-6.544
		c0-1.755,0.559-4.069,2.234-7.102c1.517-2.634,3.432-4.788,5.506-6.464c-0.958-1.117-2.075-1.995-3.192-2.713
		c-1.516-1.038-3.352-1.916-5.347-2.554c-0.399-0.08-0.639-0.479-0.559-0.878c0.08-0.319,0.479-0.559,0.877-0.479
		c0.08,0,1.517,0.399,3.512,1.357c1.835,0.877,4.07,2.314,5.905,4.469c0-0.08,0-0.08,0-0.08c2.633-1.756,5.506-3.033,8.14-3.831
		c5.347-1.676,10.135-1.756,11.412-1.756c5.746,0,11.492,0.798,18.036,2.713c2.793-0.798,5.746-1.277,8.938-1.197
		c5.985,0.08,12.29,1.277,15.083,7.501C121.281,31.026,121.122,31.425,120.802,31.584z M59.194,29.27
		c-1.995,1.516-3.75,3.511-5.107,5.985c-1.596,2.873-2.075,4.868-2.075,6.384c0,3.112,1.676,5.028,4.309,5.107
		c3.911,0.08,4.948-4.309,5.188-8.06C61.508,35.575,61.109,32.223,59.194,29.27z M58.236,64.064
		c1.356-2.313,3.112-5.027,5.347-8.299c-2.953-0.878-7.741-0.719-7.741,3.671C55.842,61.192,56.72,62.947,58.236,64.064z
		 M79.943,72.444c-1.117-3.272-2.953-6.065-4.868-8.3c-2.474-2.952-5.107-5.027-6.464-5.905c-1.117-0.878-2.394-1.517-3.671-1.995
		c-1.835,2.873-3.591,5.666-5.506,8.698C65.418,68.852,71.883,71.407,79.943,72.444z M97.021,25.838
		c-1.756,0.479-3.432,1.197-5.028,1.916c-4.229,2.155-8.14,5.107-11.811,8.698c-5.187,5.187-9.896,11.652-14.444,18.514
		c1.277,0.559,2.554,1.277,3.751,2.075c1.437,0.958,4.149,3.112,6.703,6.145c2.155,2.554,4.23,5.666,5.347,9.417
		c1.277,0.08,2.554,0.16,3.831,0.16c5.107,0,10.454-1.038,15.642-3.751c6.624-3.591,10.135-7.741,11.97-11.332
		c3.033-5.826,2.953-13.646-0.319-19.792c-2.154-3.99-6.145-8.299-13.487-11.252C98.458,26.317,97.739,26.078,97.021,25.838z"/>
	
	<path class="st0" id="ch1" d="M126.299,93.91c-4.469-0.238-7.741-1.756-9.736-4.469c-3.432-4.707-1.756-11.252-1.756-11.492
		c1.676-6.463,6.464-12.049,10.135-15.64c4.389-4.23,9.736-7.98,14.285-10.056c3.911-1.676,7.422-2.634,10.694-2.873
		c2.713-0.159,5.347,0.08,7.581,0.878c3.831,1.356,5.507,3.671,5.586,3.751c0.16,0.319,0.16,0.639,0,0.878
		c0.718,0.159,1.356,0.559,1.835,1.117c1.437,1.596,0.559,5.107,0.479,5.427c-0.639,2.313-2.474,5.666-5.107,9.416
		c-1.277,1.756-2.713,3.592-4.23,5.268c7.262,7.422,19.153,6.463,28.331-0.798c0.319-0.239,0.798-0.16,1.038,0.159
		c0.239,0.319,0.239,0.719-0.08,0.958c-4.549,3.512-9.497,5.666-14.524,6.145c-5.905,0.559-11.811-1.197-15.721-5.346
		c-1.437,1.596-2.953,3.111-4.469,4.549c-3.99,3.67-8.14,6.783-12.05,8.857c-4.15,2.234-8.14,3.271-11.492,3.271H126.299z
		 M139.786,53.61c-7.821,3.432-20.749,13.727-23.542,24.74c0,0-1.516,6.145,1.516,10.295c1.756,2.314,4.629,3.67,8.619,3.83
		c6.384,0.398,14.843-3.91,23.223-11.73c1.676-1.518,3.192-3.113,4.708-4.79c-0.639-1.037-1.117-2.234-1.437-3.511
		c-0.638-2.714-0.638-5.826,0-8.699c0.559-2.313,1.437-4.389,2.713-5.905c1.356-1.676,3.112-2.713,4.948-3.032
		c0.479-0.08,0.878-0.08,1.277-0.08c-0.399-0.479-2.155-2.394-4.868-3.191c-1.356-0.399-3.352-0.799-5.267-0.799
		C148.246,50.737,144.096,51.695,139.786,53.61z M154.23,64.064c-0.718,3.432-0.559,7.661,1.038,10.773
		c4.469-5.187,7.821-10.215,8.778-13.886c0.16-0.798,0.639-3.032-0.239-4.069c-0.399-0.479-1.117-0.719-1.995-0.719
		C158.141,56.244,155.348,59.117,154.23,64.064z"/>
	<path class="st0" id="ch2" d="M176.249,92.793c3.033-7.9,7.821-16.998,14.125-26.893c1.676-2.554,3.432-5.107,5.187-7.741l0.399-0.559
		c3.99-5.746,8.459-11.651,13.248-17.637c5.746-7.182,11.971-14.364,17.397-20.03c4.868-5.188,8.619-8.539,10.215-9.337
		c1.835-0.878,3.512-1.038,4.948-0.559c1.197,0.399,2.234,1.356,2.793,2.474c1.835,3.831-1.197,8.06-1.277,8.22
		c-4.389,5.906-12.29,13.248-23.622,21.946c-9.018,6.863-17.956,12.848-22.664,15.96c-5.826,8.46-11.891,18.117-16.439,27.613
		c2.075-2.873,4.628-6.465,7.582-10.215c4.07-5.108,7.98-9.497,11.651-13.088c4.629-4.549,8.858-7.82,12.609-9.656
		c0.08-0.079,2.953-1.437,6.543-2.234c2.235-0.398,4.23-0.559,5.985-0.319c2.314,0.24,4.229,1.117,5.826,2.395
		c1.596,1.276,2.793,3.352,2.873,5.586c0.399,7.103-7.422,15.083-8.3,15.961c0,0-2.793,2.792-5.426,6.224
		c-4.629,5.826-4.708,8.141-4.389,9.098c0.08,0.16,0.239,0.879,1.915,1.117c3.511,0.4,7.501-0.717,12.529-3.59
		c4.628-2.635,10.135-6.705,17.796-13.168c0.319-0.239,0.798-0.239,1.038,0.08s0.239,0.798-0.08,1.037
		c-12.609,10.614-22.904,17.875-31.443,17.079c-1.676-0.16-2.793-0.959-3.192-2.154c-0.718-2.076,0.798-5.508,4.708-10.375
		c4.868-6.066,13.886-13.167,13.407-21.228c-0.08-1.836-0.798-3.352-2.314-4.629c-5.985-4.947-16.759,0.319-16.838,0.399
		c-6.544,3.271-14.764,11.013-23.781,22.424c-6.784,8.619-11.731,16.359-11.731,16.439L176.249,92.793z M237.458,11.873
		c-2.713,1.277-14.285,13.008-27.133,29.048c-3.112,3.751-6.943,8.778-11.013,14.524c10.773-7.263,33.836-23.462,42.774-35.593
		c0.08-0.08,2.634-3.671,1.197-6.703c-0.319-0.878-1.516-2.075-3.192-1.995C239.293,11.155,238.655,11.314,237.458,11.873z"/>
	<path class="st0" id="ch3" d="M243.117,89.123c-1.756-6.225,5.985-16.599,10.375-22.824c5.746-8.221,11.891-15.482,11.97-15.563
		c0.24-0.319,0.718-0.319,1.038-0.079c0.319,0.239,0.319,0.718,0.08,1.037c-0.08,0.08-6.225,7.262-11.97,15.402
		c-4.07,5.825-11.572,15.881-10.135,21.706c0.639,2.314,3.831,2.555,5.906,2.555c9.257,0,22.105-8.141,31.283-16.121
		c0.319-0.239,0.798-0.239,1.038,0.08s0.239,0.718-0.08,1.037c-9.497,8.061-21.467,16.439-32.24,16.439
		C247.426,92.793,243.835,92.314,243.117,89.123z M273.203,44.433c-2.155,0-3.911-1.756-3.911-3.911c0-2.075,1.756-3.83,3.911-3.83
		c2.075,0,3.831,1.755,3.831,3.83C277.033,42.677,275.277,44.433,273.203,44.433z"/>
	<path class="st0" id="ch4" d="M311.264,50.817c-2.474,0-13.487-0.559-17.397-0.958c-0.399-0.079-0.718-0.398-0.718-0.798
		c0-0.319,0.319-0.639,0.718-0.639c0.159,0,0.479,0,1.356,0.08c5.746,0.479,11.332,0.798,16.759,0.958
		c10.773-20.19,18.594-33.438,23.303-39.503c2.154-2.793,3.032-3.432,4.309-2.873c0.16,0.08,0.479,0.319,0.639,0.718
		c0.479,1.117-0.559,4.389-0.958,5.347c-3.671,9.576-11.092,19.871-16.599,26.813c-3.112,3.911-5.985,7.263-8.06,9.577
		c6.065,0.079,11.971,0.079,17.637-0.16c0.399,0,0.718,0.319,0.718,0.719c0,0.398-0.319,0.718-0.718,0.718
		c-3.432,0.16-7.023,0.239-10.694,0.239c-2.713,0-5.426-0.079-8.22-0.159c-0.479,0.479-0.798,0.878-1.117,1.197
		c-8.299,15.641-15.242,29.527-15.402,29.767c0,0-3.192,6.064-0.958,9.176c1.357,1.916,4.549,2.395,9.337,1.598
		c13.327-2.234,27.452-14.127,31.442-17.717c0.319-0.239,0.798-0.239,1.038,0.08c0.239,0.319,0.239,0.718-0.08,1.038
		c-4.549,4.07-9.736,7.9-14.684,10.934c-6.305,3.83-12.21,6.225-17.477,7.102c-1.437,0.24-2.793,0.398-4.07,0.398
		c-3.192,0-5.427-0.877-6.624-2.633c-2.793-3.75,0.559-10.215,0.798-10.613c0.16-0.4,7.262-13.806,14.764-27.932
		c-0.24,0.16-25.138,20.11-28.091,23.383c-0.559,0.559-1.038,0.238-1.197,0c-0.16-0.24-0.239-0.719,0.239-1.118
		C292.669,65.5,311.264,50.817,311.264,50.817z M321.558,39.086c5.826-7.262,13.966-18.195,17.078-28.331
		c0.399-1.436,0.399-2.154,0.319-2.314c-0.08-0.16-0.24-0.16-0.479,0c-0.399,0.319-0.958,0.958-2.075,2.394
		c-5.107,6.624-13.567,21.627-21.388,36.071C316.85,44.832,319.164,42.119,321.558,39.086z"/>
	<path class="st0" id="ch5" d="M360.572,91.916c0-1.117,0.16-2.234,0.399-3.432c0.08-0.398,0.479-0.639,0.878-0.559
		c0.399,0.08,0.638,0.479,0.559,0.797c-0.24,1.197-0.399,2.236-0.399,3.193c0,2.154,0.639,3.91,1.756,5.188
		c1.995,1.834,4.628,2.473,7.182,2.473c6.384-0.238,11.093-4.309,15.162-8.617c5.347-5.666,11.252-13.807,18.674-23.862
		c5.746-7.821,11.891-16.041,18.436-23.303c2.793-3.112,5.746-5.985,8.699-8.619c-5.188-1.356-11.174-3.192-18.037-5.746
		c-4.148-1.516-7.9-2.075-11.332-2.075c-5.984,0-10.774,1.835-14.125,3.671c-3.351,1.915-5.266,3.91-5.505,4.07
		c-0.319,0.319-0.719,0.319-1.037,0.08c-0.24-0.239-0.24-0.718,0-1.037c0,0,1.915-2.075,5.505-4.15
		c3.512-2.075,8.7-4.07,15.163-4.07c3.592,0,7.502,0.559,11.811,2.154c7.264,2.634,13.568,4.549,18.914,5.906
		c8.221-6.783,17.318-11.811,27.453-11.811c3.99,0.08,7.82,0.239,10.215,3.033c2.553,3.032,1.197,7.262-1.518,9.497
		c-4.148,3.432-9.576,3.91-14.523,3.91c-4.23,0-11.014-0.479-21.307-3.032c-0.879,0.798-1.756,1.596-2.635,2.394
		c-9.098,8.459-17.316,19.631-25.059,30.006c-5.586,7.501-10.215,13.964-14.524,19.232c-5.346,6.385-11.89,13.807-20.429,13.807
		c-2.713,0-6.304-0.719-8.22-2.953C361.29,96.465,360.572,94.311,360.572,91.916z M468.306,33.739
		c2.555-2.154,3.354-5.187,1.518-7.661c-2.154-2.314-6.066-2.394-9.098-2.474c-10.057,0.16-18.436,4.948-25.777,10.853
		c9.576,2.314,16.041,2.713,19.951,2.713C462.401,37.25,466.472,35.255,468.306,33.739z"/>
	<path class="st0" id="ch6" d="M504.929,76.195c-7.74,6.941-20.748,17.316-31.762,17.316c-3.111,0-8.219-0.877-8.539-4.867
		c-0.158-1.756,0.799-3.832,2.873-6.305c-3.352,2.713-6.623,5.188-9.975,7.262c-5.348,3.352-9.977,4.947-14.125,4.947
		c-6.703,0-11.891-3.91-12.85-10.533c-0.637-5.666,3.193-12.05,11.254-18.914c5.186-4.39,10.453-7.821,15.801-10.136
		c5.188-2.313,10.055-3.431,14.604-3.431c2.154,0,4.15,0.239,6.064,0.798c0.32,0.079,5.586,1.516,6.625,6.145
		c0.877,3.91-1.438,8.778-6.863,14.524c0.238-0.16,0.479-0.319,0.639-0.479c7.102-5.188,14.283-9.338,14.363-9.338
		c0.32-0.239,0.799-0.079,0.959,0.24c0.238,0.318,0.078,0.798-0.24,0.957c-0.08,0.08-7.262,4.229-14.205,9.258
		c-4.07,3.033-7.342,5.746-9.576,8.06c-2.713,2.873-4.07,5.188-3.91,6.863c0.16,2.793,4.709,3.512,7.021,3.512
		c9.498,0,21.707-8.539,30.805-16.999c0.32-0.24,0.799-0.24,1.037,0.079C505.169,75.476,505.169,75.875,504.929,76.195z
		 M470.454,78.029c12.131-10.054,13.807-15.96,13.088-19.232c-0.877-3.831-5.586-5.107-5.666-5.107
		c-1.756-0.479-3.672-0.719-5.666-0.719c-8.857,0-19.631,4.789-29.447,13.248c-4.23,3.511-7.262,7.022-9.018,10.214
		c-1.438,2.633-1.996,5.107-1.756,7.422c0.639,5.746,5.426,9.258,11.412,9.258C452.339,93.113,462.394,84.734,470.454,78.029z"/>
	<path class="st0" id="ch7" d="M490.079,92.793c0,0,2.234-3.031,5.984-8.139c2.076-2.793,4.391-6.146,6.625-9.498
		c10.854-16.279,11.012-20.27,10.533-21.228c-0.16-0.399,0-0.798,0.32-0.958c0.398-0.159,0.797,0,0.957,0.319
		c0.479,0.958,0.719,3.033-2.475,9.258c-1.676,3.191-4.07,7.182-7.102,11.891c1.117-1.197,2.314-2.395,3.512-3.592
		c6.383-6.225,12.607-10.933,18.514-14.045c7.422-3.91,14.445-5.267,20.828-3.99c2.953,0.639,4.789,1.995,5.508,3.99
		c1.676,4.629-3.752,11.013-3.91,11.252c0,0.08-3.113,3.751-5.986,8.141c-3.75,5.744-5.346,10.215-4.709,12.848
		c0.24,1.117,0.959,1.916,2.156,2.395c3.352,1.355,9.734-1.117,18.514-7.264c6.783-4.707,12.609-9.895,12.609-9.974
		c0.318-0.24,0.797-0.24,1.037,0.079s0.24,0.719-0.08,1.038c0,0-5.904,5.267-12.689,10.054c-7.5,5.188-13.326,7.822-17.316,7.822
		c-1.037,0-1.916-0.16-2.633-0.48c-1.598-0.637-2.635-1.754-3.033-3.352c-0.719-3.111,0.957-7.74,4.947-13.965
		c2.873-4.389,6.145-8.22,6.145-8.22s4.949-6.064,3.592-9.896c-0.479-1.516-1.994-2.554-4.469-3.032
		c-13.727-2.793-28.25,8.061-37.986,17.557c-4.869,4.789-9.098,9.736-12.211,13.726c-3.191,4.15-5.984,8.061-5.984,8.141
		L490.079,92.793z"/>
	<path class="st0" id="ch8" d="M602.276,91.518c-2.395-3.592-1.518-10.535,2.633-20.67c0.398-0.877,0.398-0.877,0.639-1.436
		c-6.543,9.655-12.369,17.157-21.787,21.547c-4.867,2.313-9.256,2.951-12.129,1.834c-2.395-1.037-3.672-3.352-3.352-6.383
		c0.559-5.746,3.67-13.249,8.857-22.346c3.83-6.783,7.502-11.97,7.582-11.97c0.238-0.319,0.639-0.399,0.957-0.16
		c0.318,0.16,0.398,0.639,0.16,0.958c0,0.079-3.672,5.187-7.502,11.891c-5.027,8.778-7.98,16.28-8.539,21.786
		c-0.24,2.234,0.559,4.15,2.395,4.869c2.395,0.957,6.543,0.318,10.934-1.756c13.965-6.703,24.02-25.377,31.203-37.428
		c1.195,0.798,1.195,0.798,1.195,0.798c-1.275,2.234-5.904,10.135-9.256,18.355c-3.91,9.496-4.869,16.199-2.793,19.312
		c1.275,1.836,3.67,2.553,7.262,1.994c5.027-0.717,10.375-4.148,15.402-9.975c3.59-4.07,6.863-9.257,9.656-14.843
		c-1.676-1.756-2.314-4.07-2.475-5.746c-0.238-2.394,0.16-5.027,1.037-7.103c1.197-2.713,3.113-4.229,5.188-3.91
		c0.719,0.159,1.277,0.559,1.676,1.197c0.719,1.356,0.559,3.671-0.559,7.182c-0.957,3.192-1.994,5.666-3.111,7.98
		c3.191,2.395,8.539,1.277,12.529-0.079c4.469-1.597,8.139-3.751,8.139-3.831c0.4-0.159,0.799-0.08,1.037,0.239
		c0.16,0.399,0.08,0.798-0.238,1.038c-0.16,0.079-3.91,2.313-8.459,3.91c-2.793,0.957-5.268,1.437-7.342,1.596
		c-2.555,0.08-4.709-0.398-6.305-1.517c-2.793,5.587-6.145,10.775-9.736,14.843c-2.475,2.873-5.107,5.268-7.662,6.943
		c-2.873,1.916-5.744,3.113-8.539,3.512c-0.877,0.16-1.676,0.238-2.393,0.238C605.628,94.389,603.554,93.432,602.276,91.518z
		 M635.714,55.605c-0.879,1.836-1.197,4.229-0.957,6.385c0.158,1.755,0.797,3.352,1.676,4.469c0.398-0.958,0.877-1.995,1.197-2.793
		c1.355-3.352,3.271-8.858,2.313-10.614c-0.238-0.398-0.559-0.479-0.957-0.479C637.229,52.573,636.112,54.648,635.714,55.605z"/>
	<path class="st0" id="ch9" d="M719.581,76.195c-7.742,6.941-20.75,17.316-31.762,17.316c-3.113,0-8.221-0.877-8.539-4.867
		c-0.16-1.756,0.797-3.832,2.873-6.305c-3.352,2.713-6.625,5.188-9.977,7.262c-5.346,3.352-9.975,4.947-14.125,4.947
		c-6.703,0-11.891-3.91-12.848-10.533c-0.639-5.666,3.191-12.05,11.252-18.914c5.188-4.39,10.453-7.821,15.801-10.136
		c5.188-2.313,10.055-3.431,14.604-3.431c2.156,0,4.15,0.239,6.066,0.798c0.318,0.079,5.586,1.516,6.623,6.145
		c0.877,3.91-1.436,8.778-6.863,14.524c0.24-0.16,0.479-0.319,0.639-0.479c7.102-5.188,14.285-9.338,14.365-9.338
		c0.318-0.239,0.797-0.079,0.957,0.24c0.24,0.318,0.08,0.798-0.24,0.957c-0.078,0.08-7.262,4.229-14.205,9.258
		c-4.068,3.033-7.342,5.746-9.576,8.06c-2.713,2.873-4.07,5.188-3.91,6.863c0.16,2.793,4.709,3.512,7.023,3.512
		c9.496,0,21.707-8.539,30.805-16.999c0.318-0.24,0.797-0.24,1.037,0.079C719.819,75.476,719.819,75.875,719.581,76.195z
		 M685.104,78.029c12.131-10.054,13.807-15.96,13.088-19.232c-0.877-3.831-5.586-5.107-5.666-5.107
		c-1.756-0.479-3.67-0.719-5.666-0.719c-8.857,0-19.631,4.789-29.447,13.248c-4.229,3.511-7.262,7.022-9.018,10.214
		c-1.436,2.633-1.994,5.107-1.756,7.422c0.639,5.746,5.428,9.258,11.412,9.258C666.989,93.113,677.046,84.734,685.104,78.029z"/>
	<path class="st0" id="ch10" d="M733.38,88.324c0.16-2.074,1.037-4.549,2.473-7.422c2.635-5.187,6.863-10.773,10.215-15.242
		c1.518-1.916,2.715-3.592,3.672-4.948c0.719-1.037,1.277-2.314,0.877-3.112c-0.637-1.197-3.271-1.276-4.229-1.276
		c-0.398,0-6.064-0.319-9.576-2.234c-0.16,0.239-0.32,0.479-0.479,0.798c-4.709,8.14-10.535,15.562-17.158,21.546
		c-0.32,0.24-0.799,0.24-1.037-0.08c-0.24-0.318-0.24-0.717,0.08-1.037c7.102-6.385,12.289-13.807,16.838-21.228
		c0.16-0.319,0.479-0.799,0.479-0.878c-1.916-1.437-2.475-3.512-2.154-5.427c0.398-2.314,2.314-2.475,2.713-2.475
		c1.676,0,2.314,1.038,2.555,1.677c0.479,1.436,0.078,3.191-1.197,5.825c2.553,1.437,7.021,1.995,8.857,2.075
		c0.719,0,4.549-0.08,5.586,1.995c0.639,1.196,0.32,2.713-0.957,4.628c-0.957,1.437-2.234,3.112-3.672,5.028
		c-3.352,4.469-7.5,9.895-10.135,15.002c-1.355,2.713-2.154,5.027-2.314,6.943c-0.398,3.91,1.676,5.826,5.746,5.826
		c1.996,0,4.549-0.719,7.502-1.756c5.746-1.996,12.689-5.348,19.473-9.498c0.318-0.238,0.717-0.158,0.957,0.16
		c0.24,0.398,0.08,0.799-0.24,1.037c-6.863,4.23-13.885,7.662-19.711,9.656c-3.512,1.197-6.145,1.916-8.857,1.836
		C735.136,95.586,732.981,92.475,733.38,88.324z M736.253,51.934c1.277-2.634,1.197-3.83,0.957-4.389
		c-0.16-0.399-0.559-0.799-1.197-0.799c-0.639,0.08-0.957,0.559-1.117,1.357C734.657,49.221,735.216,51.216,736.253,51.934z"/>
</g>
</svg>
