<?xml version="1.0" encoding="utf-8"?>
<!-- Generator: Adobe Illustrator 16.0.0, SVG Export Plug-In . SVG Version: 6.00 Build 0)  -->
<!DOCTYPE svg PUBLIC "-//W3C//DTD SVG 1.1//EN" "http://www.w3.org/Graphics/SVG/1.1/DTD/svg11.dtd">
<svg version="1.1" id="Layer_1" xmlns="http://www.w3.org/2000/svg" xmlns:xlink="http://www.w3.org/1999/xlink" x="0px" y="0px"
	 width="809px" height="183px" viewBox="0 0 809 183" style="enable-background:new 0 0 809 183;" xml:space="preserve">
<defs>
	<style type="text/css">
		.st0
		{
			fill : #12468c;
			stroke:#000000;
			stroke-width:6;
			stroke-miterlimit:10;
			stroke-dasharray : 900;
			stroke-dashoffset : 0;
			-webkit-animation : anim 4s linear ;
			-o-animation : anim 4s linear ;
			-moz-animation : anim 4s linear ;
			animation : anim 4s linear ;
		}
		.st1
		{
			fill : #12468c;
			stroke:#38C7C6;
			stroke-width:6;
			stroke-miterlimit:10;
			stroke-dasharray : 900;
			stroke-dashoffset : 0;
			-webkit-animation : anim 4s linear ;
			-o-animation : anim 4s linear ;
			-moz-animation : anim 4s linear ;
			animation : anim 4s linear ;
		}
		#delay-1
		{
			visibility : hidden;
			-webkit-animation : anim 5s linear ;
			-o-animation : anim 2s linear ;
			-moz-animation : anim 2s linear ;
			animation : anim 6s linear ;	
		}
		#delay-2
		{
			visibility : hidden;
			-webkit-animation : anim 4s linear 0.5s ;
			-o-animation : anim 4s linear 0.5s ;
			-moz-animation : anim 4s linear 0.5s ;
			animation : anim1 6s linear 1.5s ;	
		}
		#delay-3
		{
			visibility : hidden;
			-webkit-animation : anim 4s linear 0.5s ;
			-o-animation : anim 4s linear 0.5s ;
			-moz-animation : anim 4s linear 0.5s ;
			animation : anim1 6s linear 2s ;	
		}
		#delay-4
		{
			visibility : hidden;	
			-webkit-animation : anim 4s linear 0.75s ;
			-o-animation : anim 4s linear 0.75s ;
			-moz-animation : anim 4s linear 0.75s ;
			animation : anim2 6s linear 2.75s ;	
		}
		#delay-5
		{
			visibility : hidden;
			-webkit-animation : anim 4s linear 1.25s ;
			-o-animation : anim 4s linear 1.25s ;
			-moz-animation : anim 4s linear 1.25s ;
			animation : anim2 6s linear 3.25s ;	
		}
		#delay-6
		{
			visibility : hidden;
			-webkit-animation : anim 4s linear 1.5s ;
			-o-animation : anim 4s linear 1.5s ;
			-moz-animation : anim 4s linear 1.5s ;
			animation : anim3 6s linear 3.75s ;	
		}
		#delay-7
		{
			visibility : hidden;
			-webkit-animation : anim 4s linear 1.75s ;
			-o-animation : anim 4s linear 1.75s ;
			-moz-animation : anim 4s linear 1.75s ;
			animation : anim3 6s linear 4.5s ;	
		}
		#delay-8
		{
			visibility : hidden;
			-webkit-animation : anim 4s linear 2s ;
			-o-animation : anim 4s linear 2s ;
			-moz-animation : anim 4s linear 2s ;
			animation : anim4 4s linear 4.75s ;	
		}
		#delay-9
		{
			visibility : hidden;
			-webkit-animation : anim 4s linear 0.25s ;
			-o-animation : anim 4s linear 0.25s ;
			-moz-animation : anim 4s linear 0.25s ;
			animation : anim4 4s linear 5s ;	
		}
		#delay-10
		{
			visibility : hidden;
			-webkit-animation : anim 4s linear 2.25s ;
			-o-animation : anim 4s linear 2.25s ;
			-moz-animation : anim 4s linear 2.25s ;
			animation : anim5 4s linear 5.25s ;
		}
		#delay-11
		{
			visibility : hidden;
			-webkit-animation : anim 4s linear 9s ;
			-o-animation : anim 4s linear 9s ;
			-moz-animation : anim 4s linear 9s ;
			animation : anim5 4s linear 5.5s ;	
		}
		@-webkit-keyframes anim{
		0%,10%{
			visibility : visible;
			stroke-dashoffset : 900;
		}
		40%,100%{
			stroke-dashoffset : 0;
		}
		}
		@-webkit-keyframes anim1{
		0%,10%{
			visibility : visible;
			stroke-dashoffset : 900;
		}
		50%,100%{
			stroke-dashoffset : 0;
		}
		}
		@-webkit-keyframes anim2{
		0%,10%{
			visibility : visible;
			stroke-dashoffset : 900;
		}
		60%,100%{
			stroke-dashoffset : 0;
		}
		}
		@-webkit-keyframes anim3{
		0%,10%{
			visibility : visible;
			stroke-dashoffset : 900;
		}
		70%,100%{
			stroke-dashoffset : 0;
		}
		}
		@-webkit-keyframes anim4{
		0%,10%{
			visibility : visible;
			stroke-dashoffset : 900;
		}
		80%,100%{
			stroke-dashoffset : 0;
		}
		}
		@-webkit-keyframes anim5{
		0%,10%{
			visibility : visible;
			stroke-dashoffset : 900;
		}
		90%,100%{
			stroke-dashoffset : 0;
		}
		}
		
	</style>
</defs>
<g>
	<path class="st0" id="delay-1" d="M119.186,87.353c-4.761,5.194-11.398,8.513-18.901,9.09c5.627,8.225,7.358,15.439,5.339,21.932
		c0,0.145,0,0.289-0.145,0.289l-9.09,25.539c-2.453,6.926-1.299,11.543,0.577,14.429c0.865,1.587,1.875,2.597,2.886,3.319
		l1.587,1.154c2.741,1.154,3.607,4.328,2.453,6.781c-1.01,1.876-2.742,2.886-4.617,2.886c-0.866,0-1.587-0.145-2.309-0.433
		c-3.319-1.587-7.215-5.05-9.812-10.389c-2.598-5.194-3.752-12.12-0.433-21.21l9.09-25.395c0.721-2.886-0.145-6.349-1.876-9.812
		c-1.876-3.463-4.617-6.637-6.926-9.378l-8.946,24.528c-2.165,5.771-5.771,10.678-10.533,14.141
		c-4.762,3.463-10.533,5.338-16.737,5.338c-7.936,0-15.15-3.319-20.345-8.513s-8.513-12.408-8.513-20.344s3.318-15.15,8.513-20.344
		s12.409-8.513,20.345-8.513c7.791,0,14.573,2.742,20.2,8.224c1.01,1.01,1.587,2.309,1.587,3.607c0,2.741-2.309,5.194-5.05,5.194
		c-1.443,0.145-2.742-0.433-3.752-1.443c-3.607-3.607-7.936-5.338-12.985-5.338c-5.194,0-9.812,2.02-13.13,5.338
		c-3.463,3.463-5.483,8.08-5.483,13.274s2.02,9.812,5.483,13.13c3.319,3.463,7.936,5.482,13.13,5.482
		c8.08,0,14.861-5.05,17.603-12.553l15.583-42.998c1.876-6.349,6.061-10.966,9.523-13.996c1.731-1.587,3.318-2.742,4.617-3.463
		c2.741-1.443,3.607-2.309,6.204-1.299s3.896,4.04,2.886,6.637c-0.433,1.298-1.299,2.309-2.597,2.886l-1.298,0.721
		c-1.876,1.01-4.473,2.886-6.782,6.061c-1.298,1.587-2.165,3.463-2.886,5.627v0.289l-2.597,6.926
		c2.453,1.01,4.906,1.587,7.358,1.587c5.05,0,9.523-2.021,12.986-5.339c3.318-3.318,5.338-7.936,5.338-12.986
		s-2.02-9.523-5.338-12.986c-3.463-3.318-7.936-5.339-12.986-5.339c-5.05,0-9.667,2.021-12.985,5.339
		c-3.319,3.463-5.339,7.936-5.339,12.986c0,2.742-2.309,5.05-5.05,5.05c-2.886,0-5.194-2.309-5.194-5.05
		c0-7.936,3.174-15.006,8.368-20.2s12.265-8.369,20.2-8.369c7.936,0,15.006,3.174,20.2,8.369s8.369,12.264,8.369,20.2
		C126.978,75.521,123.947,82.303,119.186,87.353z"/>
	<path class="st0" id="delay-2" d="M197.965,106.687c-2.741,6.926-7.358,13.996-14.14,19.19c-6.782,5.339-15.295,8.946-25.539,8.946h-1.299
		c-0.433,0-0.865,0-1.298-0.145c-5.627,3.607-11.832,5.771-18.036,5.771c-12.265,0-18.036-10.1-18.469-20.489
		c-0.433-10.245,4.328-21.788,9.812-30.012c5.482-8.08,12.264-14.285,19.767-17.748c3.607-1.731,7.214-2.597,10.822-2.597
		c9.09,0,15.727,5.916,17.892,15.294c0.577,2.742-1.154,5.483-4.04,6.061c-2.742,0.577-5.483-1.154-6.061-3.896
		c-1.01-4.761-3.607-7.214-7.791-7.214c-4.473,0-9.812,2.741-14.862,7.358c-5.194,4.762-9.956,11.543-12.841,19.623
		c-3.896,9.956-2.598,17.026-0.289,20.345c1.443,2.02,3.463,3.03,6.061,3.03c1.875,0,3.896-0.433,6.06-1.154
		c-0.721-0.577-1.154-1.299-1.587-2.021c-3.896-5.338-4.473-12.697-1.731-20.344c4.185-11.543,12.697-17.603,21.21-17.026
		c5.771,0.433,10.389,4.185,11.688,9.379c2.886,8.801-1.876,18.613-5.339,23.951c10.245-3.463,17.314-11.687,20.2-19.767
		c1.01-2.742,3.896-4.04,6.638-3.03C197.532,101.204,198.975,103.945,197.965,106.687z M163.48,102.07l-0.145-0.289l-0.144-0.433
		c-0.144-0.866-1.01-1.299-2.309-1.299c-0.144-0.145-0.289-0.145-0.433-0.145c-3.318,0-7.503,2.742-10.244,10.389
		c-1.587,4.473-1.587,8.08,0.289,10.822c1.01,1.298,2.02,2.02,3.03,2.453c4.04-3.318,7.359-7.647,9.09-12.408
		C163.913,107.408,164.202,104.378,163.48,102.07z"/>
	<path class="st0" id="delay-3" d="M267.941,106.543l-4.905,13.563c-1.587,4.04-4.473,9.09-8.657,13.13c-4.185,4.04-9.667,7.214-15.872,7.214
		c-9.812,0-13.996-7.792-13.852-14.717c0.145-3.319,0.722-6.349,1.731-9.09l8.08-22.364c3.319-9.09-0.865-14.717-8.945-14.717
		c-5.05,0-10.101,2.02-14.573,5.338c-4.617,3.463-8.369,8.08-10.1,12.842l-14.285,39.246c-1.01,2.309-2.597,3.463-4.905,3.463
		c-0.433,0-1.01-0.145-1.731-0.289c-2.742-1.01-4.185-3.896-3.175-6.637l33.042-90.612c1.01-2.741,3.896-4.185,6.637-3.174
		s4.04,3.896,3.03,6.637l-9.812,27.126c5.05-2.741,10.533-4.329,15.872-4.329c7.647,0,13.274,2.742,17.025,8.08
		c3.896,5.627,4.473,12.986,1.731,20.489l-8.224,22.364c-1.154,3.463-1.298,7.359-0.144,9.09c0.144,0.144,0.288,0.433,0.721,0.577
		c0.289,0.144,0.866,0.289,1.875,0.289c3.319,0,6.493-1.876,9.09-4.617s4.617-5.916,5.627-8.802l5.05-13.707
		c1.01-2.741,3.896-4.04,6.637-3.03C267.653,100.916,268.952,103.801,267.941,106.543z"/>
	<path class="st0" id="delay-4" d="M294.635,106.687l-4.906,13.708c-1.587,3.896-4.473,8.801-8.657,12.841c-4.184,4.04-9.522,7.214-15.727,7.214
		c-4.617,0-8.657-1.876-10.966-5.339c-3.896-5.338-3.319-12.841-1.154-18.469l16.016-43.574c1.01-2.742,3.751-4.04,6.493-3.03
		s4.184,3.751,3.174,6.493l-16.016,43.863c-1.154,3.318-1.299,7.07-0.289,8.801c0.145,0.144,0.433,0.433,0.866,0.577
		c0.288,0.289,0.865,0.433,1.875,0.433c1.875,0,4.906-1.154,7.647-3.463c2.742-2.309,5.339-5.627,7.07-10.101l4.906-13.418
		c1.01-2.742,3.896-4.184,6.637-3.174S295.645,103.945,294.635,106.687z M276.021,54.167l1.876-5.05
		c1.01-2.741,3.751-4.04,6.493-3.03s4.184,3.751,3.174,6.493l-2.02,5.05c-0.577,2.165-2.597,3.463-4.761,3.463
		c-0.433,0-1.01-0.144-1.731-0.289C276.31,59.794,275.012,56.908,276.021,54.167z"/>
	<path class="st0" id="delay-5" d="M336.911,106.543c-0.577,1.731-1.875,4.905-3.751,8.513c-1.876,3.607-4.473,7.792-7.503,11.688
		c-7.503,9.09-16.016,13.707-25.684,13.707c-9.667,0-14.429-4.04-16.737-7.358c-3.896-5.339-4.184-12.842-1.298-20.922
		l13.274-36.505h-5.627c-2.886,0-5.194-2.309-5.194-5.05c0-2.886,2.309-5.194,5.194-5.194h9.379l8.225-22.509
		c1.01-2.741,3.896-4.185,6.637-3.174c2.742,1.01,4.04,3.896,3.03,6.637l-6.781,19.046h15.006c2.741,0,5.194,2.309,5.194,5.194
		c0,2.741-2.453,5.05-5.194,5.05h-18.758l-14.573,40.112c-0.866,2.309-1.298,4.473-1.298,6.493c0,4.04,1.298,7.792,9.522,7.792
		c8.225,0,14.573-5.627,19.19-11.832c4.473-6.205,7.214-12.986,7.936-15.294c1.01-2.741,3.896-4.04,6.638-3.03
		C336.479,100.916,337.921,103.801,336.911,106.543z"/>
	<path class="st0" id="delay-6" d="M493.75,22.135c2.886,2.886,4.617,6.926,4.617,11.11c0,4.473-1.731,8.368-4.617,11.254s-6.926,4.762-11.11,4.762h-31.599
		c-1.731,1.587-4.762,4.906-6.493,9.956l-22.364,61.033c-2.164,5.916-5.916,10.966-10.822,14.429
		c-4.905,3.607-10.965,5.627-17.314,5.627c-8.08,0-15.583-3.318-20.921-8.657c-5.339-5.338-8.802-12.841-8.802-21.065
		c0-8.08,3.463-15.583,8.802-20.922c5.338-5.339,12.841-8.802,20.921-8.802c7.936,0,15.15,2.886,20.777,8.513
		c1.011,1.01,1.588,2.165,1.588,3.463c0,2.886-2.309,5.338-5.051,5.338c-1.442,0-2.741-0.433-3.751-1.442
		c-3.607-3.607-8.513-5.483-13.563-5.483c-5.338,0-10.245,2.165-13.708,5.627s-5.627,8.369-5.627,13.708
		c0,5.338,2.164,10.244,5.627,13.707c3.463,3.607,8.369,5.771,13.708,5.771c8.513,0,15.583-5.194,18.325-13.13
		c0.144,0,0.144,0,0.144-0.145l22.365-61.033c0.721-2.453,1.875-4.762,3.318-6.926H411.65c-3.03,0-5.482,2.453-5.482,5.771
		c0,2.886,2.452,5.338,5.482,5.338c1.587,0,2.886-0.577,3.896-1.587c1.011-1.01,2.309-1.587,3.607-1.587
		c2.741,0,5.194,2.453,5.194,5.194c0,2.886-2.886,5.483-6.637,7.07c-1.876,0.865-3.896,1.298-6.061,1.298
		c-4.473,0-8.225-1.731-11.11-4.617s-4.617-6.637-4.617-11.11c0-4.473,1.731-8.369,4.617-11.255s6.638-4.761,11.11-4.761
		l70.989,0.289c2.886,0,5.483-2.597,5.483-5.627c0-3.03-2.453-5.483-5.483-5.483c-1.587,0-2.886,0.577-3.896,1.731
		c-1.01,1.01-2.309,1.443-3.607,1.443c-2.741,0-5.194-2.309-5.194-5.194c0-1.299,0.577-2.598,1.587-3.607
		c3.03-3.03,6.781-4.617,11.11-4.617C486.824,17.518,490.864,19.249,493.75,22.135z"/>
	<path  class="st0" id="delay-7" d="M521.885,106.687l-4.906,13.563c-1.587,3.896-4.473,8.946-8.657,12.986s-9.522,7.214-15.728,7.214
		c-4.905,0-8.657-1.731-11.109-5.339c-1.011-1.442-1.732-3.03-2.165-4.761c-6.781,6.205-14.429,10.1-21.787,10.1
		c-12.265,0-18.036-10.1-18.469-20.489c-0.433-10.245,4.329-21.788,9.812-30.012c5.482-8.08,12.265-14.285,19.768-17.748
		c3.607-1.731,7.214-2.597,10.821-2.597c6.204,0,10.966,2.453,14.429,7.358l0.433,0.433c0,0.145,0.145,0.289,0.289,0.433
		l1.731-4.761c1.01-2.742,3.896-4.185,6.637-3.175c2.742,1.01,4.04,3.896,3.03,6.638l-15.872,43.719
		c-0.721,1.731-1.01,3.463-1.01,5.05c0,1.731,0.289,3.03,0.866,3.896c0.144,0.144,0.288,0.433,0.577,0.577
		c0.288,0.289,1.01,0.433,2.02,0.433c1.876,0,4.906-1.154,7.792-3.463c2.741-2.309,5.339-5.483,6.926-9.956l4.905-13.563
		c1.01-2.742,3.896-4.184,6.638-3.174S522.895,103.945,521.885,106.687z M472.538,122.703c5.05-4.617,9.956-11.399,12.842-19.479
		c3.606-9.956,2.452-17.026,0.144-20.344c-1.442-2.021-3.463-3.03-6.06-3.03c-4.473,0-9.812,2.741-14.861,7.358
		c-5.194,4.762-9.956,11.543-12.842,19.623c-3.896,9.956-2.597,17.026-0.288,20.345c1.442,2.02,3.463,3.03,6.06,3.03
		C461.717,130.206,467.344,127.464,472.538,122.703z"/>
	<path class="st0" id="delay-8" d="M581.619,106.687l-4.906,13.563c-1.587,3.896-4.473,8.946-8.657,12.986s-9.522,7.214-15.728,7.214
		c-4.761,0-8.656-2.02-11.109-5.339c-1.876-2.741-2.598-5.916-2.598-9.234c0-3.318,0.577-6.493,1.588-9.234l9.955-26.981
		c1.01-3.318,1.01-5.771-0.288-7.503c-1.299-1.876-3.607-2.309-5.483-2.309c-3.463,0-7.214,1.587-10.533,3.896
		c-3.318,2.453-5.915,5.771-7.214,9.379l-16.016,44.008c-0.722,2.164-2.598,3.318-4.762,3.318c-0.433,0-1.154-0.145-1.876-0.289
		c-2.741-1.01-4.04-3.896-3.029-6.637l16.016-43.863c0.145-0.433,0.288-0.866,0.433-1.299l0.433-1.01
		c0.145-0.145,0.145-0.433,0.145-0.577s0-0.289,0.145-0.433c0.433-1.299,0.721-2.598,0.721-3.752c0-1.01-0.144-1.875-0.433-2.309
		c0-0.288-0.433-0.433-1.154-0.433c-2.886,0-5.194-2.309-5.194-5.05c0-2.886,2.309-5.194,5.194-5.194
		c4.185,0,7.358,1.587,9.667,4.761l0.434,0.577c0,0.289,0.145,0.577,0.288,0.721c5.05-3.896,10.966-6.06,16.737-6.06
		c6.205,0,10.966,2.164,13.996,6.637c3.318,4.617,3.607,10.678,1.443,16.882l-9.956,27.126c-1.154,3.463-1.299,7.214-0.145,8.946
		c0.145,0.144,0.288,0.433,0.577,0.577s1.01,0.289,2.02,0.289c3.03,0,6.35-1.876,8.946-4.617s4.617-5.916,5.771-8.802l4.905-13.563
		c1.011-2.742,3.896-4.04,6.638-3.03S582.629,103.945,581.619,106.687z"/>
	<path class="st0" id="delay-9" d="M674.826,106.687l-4.905,13.563c-1.587,3.896-4.474,8.946-8.657,12.986c-4.185,4.04-9.523,7.214-15.728,7.214
		c-4.617,0-8.657-1.876-10.966-5.339c-0.433-0.577-0.865-1.154-1.01-1.587c-5.194,4.185-11.688,6.926-18.036,6.926
		c-6.204,0-10.821-2.164-13.852-6.637c-0.145-0.144-0.433-0.433-0.577-0.866c-5.339,4.617-11.976,7.503-18.758,7.503
		c-5.915,0-10.965-2.164-13.852-6.637c-3.318-4.761-3.751-10.389-1.587-16.881l16.017-43.863c1.01-2.742,3.896-4.185,6.637-3.175
		c2.741,1.01,4.04,3.896,3.03,6.638l-15.872,43.863c-1.154,3.03-1.154,5.627,0.145,7.503c1.299,1.875,3.752,2.309,5.482,2.309
		c3.463,0,7.359-1.587,10.678-4.04c3.318-2.309,5.916-5.627,7.215-9.234l16.016-43.863c1.01-2.742,3.751-4.185,6.492-3.175
		c2.742,1.01,4.185,3.896,3.175,6.638l-16.016,43.863c-1.154,3.03-1.154,5.627,0.144,7.503c1.588,1.875,3.752,2.309,5.483,2.309
		c3.463,0,7.358-1.587,10.677-4.04c3.319-2.309,5.916-5.627,7.215-9.234v-0.145l16.016-43.719c1.01-2.742,3.896-4.185,6.638-3.175
		c2.741,1.01,4.04,3.896,3.03,6.638l-16.017,43.719c-1.154,3.463-1.298,7.358-0.144,8.946c0.144,0.144,0.288,0.433,0.721,0.577
		c0.289,0.289,0.866,0.433,1.876,0.433c2.164,0,4.905-1.154,7.792-3.463c2.741-2.309,5.338-5.483,6.926-9.956l4.905-13.563
		c1.01-2.742,3.896-4.184,6.638-3.174C674.538,101.06,675.836,103.945,674.826,106.687z"/>
	<path class="st0" id="delay-10" d="M745.094,106.687l-4.906,13.563c-1.587,3.896-4.473,8.946-8.657,12.986s-9.522,7.214-15.728,7.214
		c-4.905,0-8.657-1.731-11.109-5.339c-1.011-1.442-1.732-3.03-2.165-4.761c-6.781,6.205-14.429,10.1-21.787,10.1
		c-12.265,0-18.036-10.1-18.469-20.489c-0.433-10.245,4.329-21.788,9.812-30.012c5.482-8.08,12.265-14.285,19.768-17.748
		c3.607-1.731,7.214-2.597,10.821-2.597c6.204,0,10.966,2.453,14.429,7.358l0.433,0.433c0,0.145,0.145,0.289,0.289,0.433
		l1.731-4.761c1.01-2.742,3.896-4.185,6.637-3.175c2.742,1.01,4.04,3.896,3.03,6.638L713.35,120.25
		c-0.721,1.731-1.01,3.463-1.01,5.05c0,1.731,0.289,3.03,0.866,3.896c0.144,0.144,0.288,0.433,0.577,0.577
		c0.288,0.289,1.01,0.433,2.02,0.433c1.876,0,4.906-1.154,7.792-3.463c2.741-2.309,5.339-5.483,6.926-9.956l4.905-13.563
		c1.01-2.742,3.896-4.184,6.638-3.174S746.104,103.945,745.094,106.687z M695.747,122.703c5.05-4.617,9.956-11.399,12.842-19.479
		c3.606-9.956,2.452-17.026,0.144-20.344c-1.442-2.021-3.463-3.03-6.06-3.03c-4.473,0-9.812,2.741-14.861,7.358
		c-5.194,4.762-9.956,11.543-12.842,19.623c-3.896,9.956-2.597,17.026-0.288,20.345c1.442,2.02,3.463,3.03,6.06,3.03
		C684.926,130.206,690.553,127.464,695.747,122.703z"/>
	<path class="st0" id="delay-11" d="M755.338,135.4c-1.875-2.742-2.597-5.916-2.597-9.234c-0.145-3.319,0.577-6.493,1.587-9.234l9.379-25.972
		c0.433-0.722,0.433-1.299,0.145-1.587c-0.722-1.587-3.318-2.742-4.329-3.174l-0.288-0.145l-5.771-2.309
		c-0.289,0.722-0.577,1.587-0.866,2.453l-0.865,2.597l-7.503,20.777c-1.01,2.742-3.896,4.04-6.638,3.03
		c-2.741-1.01-4.185-3.896-3.174-6.637l7.503-20.633l2.164-6.349c-5.916-4.04-8.08-8.513-8.513-12.553
		c-0.433-3.896,1.442-8.801,6.204-11.11c2.453-1.154,4.906-1.298,7.358-0.289c1.154,0.577,2.886,1.443,4.185,3.174
		c1.299,1.875,2.598,4.617,2.741,8.657c0.145,2.165,0.145,4.184-0.288,6.637l7.358,3.03c0.577,0.144,2.597,1.01,4.617,2.309
		c2.021,1.298,4.185,3.318,5.483,6.06c1.442,2.886,1.587,6.061,0.288,9.667l-9.379,25.972c-1.298,3.463-1.442,7.214-0.288,8.946
		c0.145,0.145,0.433,0.433,0.721,0.577c0.289,0.145,0.866,0.289,1.876,0.289c3.319,0,6.349-1.875,9.091-4.617
		c2.741-2.742,4.761-5.916,5.771-8.801l4.905-13.708c1.01-2.742,4.04-4.04,6.781-3.03c2.741,1.01,4.04,3.896,3.03,6.637
		l-5.05,13.708c-1.299,3.896-4.474,8.946-8.513,12.986c-4.185,4.04-9.668,7.214-16.017,7.214
		C761.831,140.739,757.791,138.863,755.338,135.4z"/>
</g>
<g>
	<path class="st1" id="delay-1" d="M113.392,81.558c-4.762,5.194-11.399,8.513-18.902,9.09c5.627,8.225,7.359,15.439,5.338,21.932
		c0,0.145,0,0.289-0.144,0.289l-9.09,25.539c-2.453,6.926-1.298,11.543,0.577,14.429c0.866,1.587,1.876,2.597,2.886,3.319
		l1.587,1.154c2.742,1.154,3.607,4.328,2.453,6.781c-1.01,1.876-2.741,2.886-4.617,2.886c-0.865,0-1.587-0.145-2.309-0.433
		c-3.318-1.587-7.214-5.05-9.812-10.389c-2.597-5.194-3.751-12.12-0.433-21.21l9.09-25.395c0.722-2.886-0.144-6.349-1.875-9.812
		c-1.875-3.463-4.617-6.637-6.926-9.378l-8.946,24.528c-2.164,5.771-5.771,10.678-10.533,14.141
		c-4.761,3.463-10.533,5.338-16.737,5.338c-7.936,0-15.15-3.319-20.344-8.513s-8.513-12.408-8.513-20.344s3.319-15.15,8.513-20.344
		s12.409-8.513,20.344-8.513c7.792,0,14.573,2.742,20.2,8.224c1.01,1.01,1.587,2.309,1.587,3.607c0,2.741-2.309,5.194-5.05,5.194
		c-1.442,0.145-2.741-0.433-3.751-1.443c-3.607-3.607-7.936-5.338-12.986-5.338c-5.194,0-9.812,2.02-13.13,5.338
		c-3.463,3.463-5.483,8.08-5.483,13.274s2.02,9.812,5.483,13.13c3.318,3.463,7.936,5.482,13.13,5.482
		c8.08,0,14.862-5.05,17.604-12.553l15.583-42.998c1.875-6.349,6.06-10.966,9.522-13.996c1.731-1.587,3.319-2.742,4.617-3.463
		c2.742-1.443,3.607-2.309,6.205-1.299s3.896,4.04,2.886,6.637c-0.433,1.298-1.298,2.309-2.597,2.886l-1.299,0.721
		c-1.875,1.01-4.473,2.886-6.781,6.061c-1.299,1.587-2.164,3.463-2.886,5.627v0.289l-2.597,6.926
		c2.453,1.01,4.906,1.587,7.359,1.587c5.05,0,9.522-2.021,12.985-5.339c3.319-3.318,5.339-7.936,5.339-12.986
		s-2.02-9.523-5.339-12.986c-3.463-3.318-7.936-5.339-12.985-5.339c-5.05,0-9.667,2.021-12.986,5.339
		C76.31,52.7,74.29,57.173,74.29,62.223c0,2.742-2.309,5.05-5.05,5.05c-2.886,0-5.194-2.309-5.194-5.05
		c0-7.936,3.175-15.006,8.369-20.2s12.264-8.369,20.2-8.369c7.936,0,15.006,3.174,20.2,8.369s8.368,12.264,8.368,20.2
		C121.183,69.726,118.153,76.508,113.392,81.558z"/>
	<path class="st1" id="delay-2" d="M192.171,100.892c-2.742,6.926-7.359,13.996-14.141,19.19c-6.781,5.339-15.294,8.946-25.539,8.946h-1.298
		c-0.433,0-0.866,0-1.299-0.145c-5.627,3.607-11.832,5.771-18.036,5.771c-12.264,0-18.036-10.1-18.469-20.489
		c-0.433-10.245,4.329-21.788,9.812-30.012c5.483-8.08,12.265-14.285,19.768-17.748c3.607-1.731,7.214-2.597,10.821-2.597
		c9.09,0,15.728,5.916,17.892,15.294c0.577,2.742-1.154,5.483-4.04,6.061c-2.741,0.577-5.482-1.154-6.06-3.896
		c-1.01-4.761-3.607-7.214-7.792-7.214c-4.473,0-9.812,2.741-14.861,7.358c-5.194,4.762-9.956,11.543-12.842,19.623
		c-3.896,9.956-2.597,17.026-0.288,20.345c1.442,2.02,3.463,3.03,6.06,3.03c1.876,0,3.896-0.433,6.061-1.154
		c-0.722-0.577-1.154-1.299-1.587-2.021c-3.896-5.338-4.473-12.697-1.731-20.344c4.184-11.543,12.697-17.603,21.21-17.026
		c5.771,0.433,10.389,4.185,11.687,9.379c2.886,8.801-1.875,18.613-5.338,23.951c10.244-3.463,17.314-11.687,20.2-19.767
		c1.01-2.742,3.896-4.04,6.637-3.03C191.738,95.409,193.181,98.15,192.171,100.892z M157.686,96.275l-0.144-0.289l-0.145-0.433
		c-0.145-0.866-1.01-1.299-2.309-1.299c-0.145-0.145-0.289-0.145-0.433-0.145c-3.319,0-7.503,2.742-10.245,10.389
		c-1.587,4.473-1.587,8.08,0.289,10.822c1.01,1.298,2.02,2.02,3.03,2.453c4.04-3.318,7.358-7.647,9.09-12.408
		C158.119,101.613,158.407,98.583,157.686,96.275z"/>
	<path class="st1" id="delay-3" d="M262.147,100.748l-4.906,13.563c-1.587,4.04-4.473,9.09-8.657,13.13c-4.184,4.04-9.667,7.214-15.871,7.214
		c-9.812,0-13.996-7.792-13.852-14.717c0.144-3.319,0.721-6.349,1.731-9.09l8.08-22.364c3.318-9.09-0.866-14.717-8.946-14.717
		c-5.05,0-10.1,2.02-14.573,5.338c-4.617,3.463-8.369,8.08-10.1,12.842l-14.284,39.246c-1.01,2.309-2.598,3.463-4.906,3.463
		c-0.433,0-1.01-0.145-1.731-0.289c-2.741-1.01-4.184-3.896-3.174-6.637L204,37.117c1.01-2.741,3.896-4.185,6.637-3.174
		s4.04,3.896,3.03,6.637l-9.812,27.126c5.05-2.741,10.533-4.329,15.871-4.329c7.647,0,13.274,2.742,17.026,8.08
		c3.896,5.627,4.473,12.986,1.731,20.489l-8.225,22.364c-1.154,3.463-1.299,7.359-0.145,9.09c0.145,0.144,0.289,0.433,0.722,0.577
		c0.289,0.144,0.866,0.289,1.876,0.289c3.318,0,6.493-1.876,9.09-4.617s4.617-5.916,5.627-8.802l5.05-13.707
		c1.01-2.741,3.896-4.04,6.637-3.03C261.858,95.121,263.157,98.006,262.147,100.748z"/>
	<path class="st1" id="delay-4" d="M288.84,100.892l-4.905,13.708c-1.587,3.896-4.473,8.801-8.657,12.841c-4.185,4.04-9.523,7.214-15.728,7.214
		c-4.617,0-8.657-1.876-10.966-5.339c-3.896-5.338-3.318-12.841-1.154-18.469l16.016-43.574c1.01-2.742,3.752-4.04,6.493-3.03
		s4.185,3.751,3.174,6.493L257.097,114.6c-1.154,3.318-1.298,7.07-0.288,8.801c0.144,0.144,0.433,0.433,0.865,0.577
		c0.289,0.289,0.866,0.433,1.876,0.433c1.876,0,4.906-1.154,7.647-3.463c2.741-2.309,5.338-5.627,7.07-10.101l4.906-13.418
		c1.01-2.742,3.896-4.184,6.637-3.174S289.85,98.15,288.84,100.892z M270.227,48.372l1.875-5.05c1.01-2.741,3.752-4.04,6.493-3.03
		s4.185,3.751,3.174,6.493l-2.02,5.05c-0.577,2.165-2.597,3.463-4.762,3.463c-0.433,0-1.01-0.144-1.731-0.289
		C270.516,53.999,269.217,51.113,270.227,48.372z"/>
	<path class="st1" id="delay-5" d="M331.117,100.748c-0.577,1.731-1.876,4.905-3.752,8.513c-1.875,3.607-4.473,7.792-7.503,11.688
		c-7.503,9.09-16.016,13.707-25.683,13.707c-9.667,0-14.429-4.04-16.737-7.358c-3.896-5.339-4.185-12.842-1.299-20.922
		l13.274-36.505h-5.627c-2.886,0-5.194-2.309-5.194-5.05c0-2.886,2.309-5.194,5.194-5.194h9.378l8.224-22.509
		c1.01-2.741,3.896-4.185,6.638-3.174c2.741,1.01,4.04,3.896,3.03,6.637l-6.782,19.046h15.006c2.742,0,5.194,2.309,5.194,5.194
		c0,2.741-2.453,5.05-5.194,5.05h-18.757l-14.573,40.112c-0.866,2.309-1.299,4.473-1.299,6.493c0,4.04,1.299,7.792,9.523,7.792
		c8.224,0,14.573-5.627,19.19-11.832c4.473-6.205,7.214-12.986,7.936-15.294c1.01-2.741,3.896-4.04,6.637-3.03
		C330.684,95.121,332.127,98.006,331.117,100.748z"/>
	<path class="st1" id="delay-6" d="M487.956,16.34c2.886,2.886,4.617,6.926,4.617,11.11c0,4.473-1.731,8.368-4.617,11.254
		s-6.926,4.762-11.11,4.762h-31.599c-1.731,1.587-4.762,4.906-6.493,9.956l-22.364,61.033c-2.165,5.916-5.916,10.966-10.821,14.429
		c-4.906,3.607-10.966,5.627-17.315,5.627c-8.08,0-15.583-3.318-20.921-8.657c-5.339-5.338-8.802-12.841-8.802-21.065
		c0-8.08,3.463-15.583,8.802-20.922c5.338-5.339,12.841-8.802,20.921-8.802c7.936,0,15.15,2.886,20.778,8.513
		c1.01,1.01,1.587,2.165,1.587,3.463c0,2.886-2.309,5.338-5.05,5.338c-1.443,0-2.742-0.433-3.752-1.442
		c-3.607-3.607-8.513-5.483-13.563-5.483c-5.338,0-10.245,2.165-13.708,5.627s-5.627,8.369-5.627,13.708
		c0,5.338,2.164,10.244,5.627,13.707c3.463,3.607,8.369,5.771,13.708,5.771c8.513,0,15.583-5.194,18.325-13.13
		c0.145,0,0.145,0,0.145-0.145l22.364-61.033c0.722-2.453,1.876-4.762,3.318-6.926h-26.549c-3.03,0-5.483,2.453-5.483,5.771
		c0,2.886,2.453,5.338,5.483,5.338c1.587,0,2.886-0.577,3.896-1.587c1.01-1.01,2.309-1.587,3.607-1.587
		c2.741,0,5.194,2.453,5.194,5.194c0,2.886-2.886,5.483-6.638,7.07c-1.875,0.865-3.896,1.298-6.06,1.298
		c-4.473,0-8.225-1.731-11.11-4.617s-4.617-6.637-4.617-11.11c0-4.473,1.731-8.369,4.617-11.255s6.638-4.761,11.11-4.761
		l70.989,0.289c2.886,0,5.482-2.597,5.482-5.627c0-3.03-2.452-5.483-5.482-5.483c-1.587,0-2.886,0.577-3.896,1.731
		c-1.011,1.01-2.309,1.443-3.607,1.443c-2.741,0-5.194-2.309-5.194-5.194c0-1.299,0.577-2.598,1.587-3.607
		c3.03-3.03,6.782-4.617,11.11-4.617C481.03,11.723,485.07,13.454,487.956,16.34z"/>
	<path class="st1" id="delay-7" d="M516.09,100.892l-4.905,13.563c-1.587,3.896-4.473,8.946-8.657,12.986s-9.523,7.214-15.728,7.214
		c-4.905,0-8.657-1.731-11.11-5.339c-1.01-1.442-1.73-3.03-2.164-4.761c-6.781,6.205-14.429,10.1-21.787,10.1
		c-12.265,0-18.036-10.1-18.469-20.489c-0.433-10.245,4.328-21.788,9.812-30.012c5.483-8.08,12.265-14.285,19.768-17.748
		c3.606-1.731,7.214-2.597,10.821-2.597c6.204,0,10.966,2.453,14.429,7.358l0.433,0.433c0,0.145,0.145,0.289,0.289,0.433
		l1.731-4.761c1.01-2.742,3.896-4.185,6.637-3.175c2.741,1.01,4.04,3.896,3.03,6.638l-15.871,43.719
		c-0.722,1.731-1.011,3.463-1.011,5.05c0,1.731,0.289,3.03,0.866,3.896c0.145,0.144,0.288,0.433,0.577,0.577
		c0.288,0.289,1.01,0.433,2.02,0.433c1.876,0,4.906-1.154,7.792-3.463c2.741-2.309,5.338-5.483,6.926-9.956l4.905-13.563
		c1.011-2.742,3.896-4.184,6.638-3.174C515.802,95.265,517.101,98.15,516.09,100.892z M466.744,116.908
		c5.05-4.617,9.956-11.399,12.842-19.479c3.607-9.956,2.453-17.026,0.145-20.344c-1.443-2.021-3.463-3.03-6.061-3.03
		c-4.473,0-9.812,2.741-14.861,7.358c-5.194,4.762-9.956,11.543-12.842,19.623c-3.896,9.956-2.598,17.026-0.289,20.345
		c1.443,2.02,3.463,3.03,6.061,3.03C455.923,124.411,461.55,121.669,466.744,116.908z"/>
	<path class="st1" id="delay-8" d="M575.825,100.892l-4.906,13.563c-1.587,3.896-4.473,8.946-8.657,12.986c-4.184,4.04-9.522,7.214-15.727,7.214
		c-4.762,0-8.658-2.02-11.11-5.339c-1.876-2.741-2.598-5.916-2.598-9.234c0-3.318,0.577-6.493,1.587-9.234l9.956-26.981
		c1.011-3.318,1.011-5.771-0.288-7.503c-1.299-1.876-3.607-2.309-5.483-2.309c-3.463,0-7.214,1.587-10.532,3.896
		c-3.319,2.453-5.916,5.771-7.215,9.379l-16.016,44.008c-0.722,2.164-2.598,3.318-4.762,3.318c-0.433,0-1.154-0.145-1.876-0.289
		c-2.741-1.01-4.04-3.896-3.03-6.637l16.017-43.863c0.144-0.433,0.288-0.866,0.433-1.299l0.433-1.01
		c0.145-0.145,0.145-0.433,0.145-0.577s0-0.289,0.145-0.433c0.433-1.299,0.722-2.598,0.722-3.752c0-1.01-0.145-1.875-0.434-2.309
		c0-0.288-0.433-0.433-1.154-0.433c-2.886,0-5.194-2.309-5.194-5.05c0-2.886,2.309-5.194,5.194-5.194
		c4.185,0,7.359,1.587,9.668,4.761l0.433,0.577c0,0.289,0.144,0.577,0.288,0.721c5.051-3.896,10.966-6.06,16.737-6.06
		c6.204,0,10.966,2.164,13.996,6.637c3.318,4.617,3.607,10.678,1.442,16.882l-9.955,27.126c-1.154,3.463-1.299,7.214-0.145,8.946
		c0.145,0.144,0.289,0.433,0.577,0.577s1.01,0.289,2.021,0.289c3.029,0,6.348-1.876,8.945-4.617s4.617-5.916,5.771-8.802
		l4.906-13.563c1.01-2.742,3.896-4.04,6.637-3.03S576.835,98.15,575.825,100.892z"/>
	<path class="st1" id="delay-9" d="M669.032,100.892l-4.905,13.563c-1.588,3.896-4.473,8.946-8.657,12.986s-9.523,7.214-15.728,7.214
		c-4.617,0-8.657-1.876-10.966-5.339c-0.433-0.577-0.866-1.154-1.01-1.587c-5.194,4.185-11.688,6.926-18.036,6.926
		c-6.204,0-10.821-2.164-13.852-6.637c-0.145-0.144-0.433-0.433-0.577-0.866c-5.339,4.617-11.976,7.503-18.757,7.503
		c-5.916,0-10.967-2.164-13.852-6.637c-3.319-4.761-3.752-10.389-1.588-16.881l16.016-43.863c1.011-2.742,3.896-4.185,6.638-3.175
		c2.741,1.01,4.04,3.896,3.03,6.638L570.917,114.6c-1.154,3.03-1.154,5.627,0.145,7.503c1.299,1.875,3.751,2.309,5.483,2.309
		c3.463,0,7.358-1.587,10.677-4.04c3.318-2.309,5.916-5.627,7.214-9.234l16.017-43.863c1.01-2.742,3.751-4.185,6.493-3.175
		c2.741,1.01,4.184,3.896,3.174,6.638L604.104,114.6c-1.154,3.03-1.154,5.627,0.145,7.503c1.587,1.875,3.751,2.309,5.482,2.309
		c3.463,0,7.358-1.587,10.678-4.04c3.318-2.309,5.915-5.627,7.214-9.234v-0.145l16.016-43.719c1.011-2.742,3.896-4.185,6.638-3.175
		c2.741,1.01,4.04,3.896,3.029,6.638l-16.016,43.719c-1.154,3.463-1.299,7.358-0.145,8.946c0.145,0.144,0.289,0.433,0.722,0.577
		c0.289,0.289,0.866,0.433,1.876,0.433c2.164,0,4.906-1.154,7.791-3.463c2.742-2.309,5.339-5.483,6.926-9.956l4.906-13.563
		c1.01-2.742,3.896-4.184,6.637-3.174C668.744,95.265,670.043,98.15,669.032,100.892z"/>
	<path class="st1" id="delay-10" d="M739.299,100.892l-4.905,13.563c-1.587,3.896-4.473,8.946-8.657,12.986s-9.523,7.214-15.728,7.214
		c-4.905,0-8.657-1.731-11.11-5.339c-1.01-1.442-1.73-3.03-2.164-4.761c-6.781,6.205-14.429,10.1-21.787,10.1
		c-12.265,0-18.036-10.1-18.469-20.489c-0.433-10.245,4.328-21.788,9.812-30.012c5.483-8.08,12.265-14.285,19.768-17.748
		c3.606-1.731,7.214-2.597,10.821-2.597c6.204,0,10.966,2.453,14.429,7.358l0.433,0.433c0,0.145,0.145,0.289,0.289,0.433
		l1.731-4.761c1.01-2.742,3.896-4.185,6.637-3.175c2.741,1.01,4.04,3.896,3.03,6.638l-15.871,43.719
		c-0.722,1.731-1.011,3.463-1.011,5.05c0,1.731,0.289,3.03,0.866,3.896c0.145,0.144,0.288,0.433,0.577,0.577
		c0.288,0.289,1.01,0.433,2.02,0.433c1.876,0,4.906-1.154,7.792-3.463c2.741-2.309,5.338-5.483,6.926-9.956l4.905-13.563
		c1.011-2.742,3.896-4.184,6.638-3.174C739.011,95.265,740.31,98.15,739.299,100.892z M689.953,116.908
		c5.05-4.617,9.956-11.399,12.842-19.479c3.607-9.956,2.453-17.026,0.145-20.344c-1.443-2.021-3.463-3.03-6.061-3.03
		c-4.473,0-9.812,2.741-14.861,7.358c-5.194,4.762-9.956,11.543-12.842,19.623c-3.896,9.956-2.598,17.026-0.289,20.345
		c1.443,2.02,3.463,3.03,6.061,3.03C679.132,124.411,684.759,121.669,689.953,116.908z"/>
	<path class="st1" id="delay-11" d="M749.543,129.605c-1.875-2.742-2.597-5.916-2.597-9.234c-0.145-3.319,0.577-6.493,1.587-9.234l9.379-25.972
		c0.433-0.722,0.433-1.299,0.145-1.587c-0.722-1.587-3.318-2.742-4.329-3.174l-0.288-0.145l-5.771-2.309
		c-0.289,0.722-0.577,1.587-0.866,2.453L745.937,83l-7.503,20.777c-1.01,2.742-3.896,4.04-6.638,3.03
		c-2.741-1.01-4.185-3.896-3.174-6.637l7.503-20.633l2.164-6.349c-5.916-4.04-8.08-8.513-8.513-12.553
		c-0.433-3.896,1.442-8.801,6.204-11.11c2.453-1.154,4.906-1.298,7.358-0.289c1.154,0.577,2.886,1.443,4.185,3.174
		c1.299,1.875,2.598,4.617,2.741,8.657c0.145,2.165,0.145,4.184-0.288,6.637l7.358,3.03c0.577,0.144,2.597,1.01,4.617,2.309
		c2.021,1.298,4.185,3.318,5.483,6.06c1.442,2.886,1.587,6.061,0.288,9.667l-9.379,25.972c-1.298,3.463-1.442,7.214-0.288,8.946
		c0.145,0.145,0.433,0.433,0.721,0.577c0.289,0.145,0.866,0.289,1.876,0.289c3.319,0,6.349-1.875,9.091-4.617
		c2.741-2.742,4.761-5.916,5.771-8.801l4.905-13.708c1.01-2.742,4.04-4.04,6.781-3.03c2.741,1.01,4.04,3.896,3.03,6.637
		l-5.05,13.708c-1.299,3.896-4.474,8.946-8.513,12.986c-4.185,4.04-9.668,7.214-16.017,7.214
		C756.036,134.944,751.996,133.068,749.543,129.605z"/>
</g>
</svg>
